<svg width="3825" height="1624" viewBox="0 0 3825 1624" fill="none" xmlns="http://www.w3.org/2000/svg">
<path d="M811.81 401C600.54 401 423 581.466 423 812C423 1042.53 600.54 1223 811.81 1223L3824.5 1223L3824.5 1384L811.81 1384C504.694 1384 262 1124.36 262 812C262 499.638 504.694 240 811.81 240C1418.17 240 3218.14 240 3824.5 240L3824.5 401L811.81 401Z" fill="white"/>
<path d="M756.838 161C433.592 161 161 446.403 161 812C161 1177.6 433.592 1463 756.838 1463L3824.5 1463L3824.5 1624L756.838 1624C333.021 1624 -1.61559e-05 1254.4 -3.54936e-05 812C-5.48314e-05 369.604 333.021 0.000233859 756.838 -3.30824e-05L3824.5 -0.000167174L3824.5 161L756.838 161Z" fill="white"/>
<path d="M855.5 642C761.335 642 685 718.335 685 812.5C685 906.664 761.335 983 855.5 983L3824.5 982.999L3824.5 1144L855.5 1144C672.418 1144 524 995.582 524 812.5C524 629.418 672.417 481 855.5 481C1444.8 481 3235.2 480.999 3824.5 480.999L3824.5 641.999L855.5 642Z" fill="white"/>
</svg>
