<svg width="1624" height="2365" viewBox="0 0 1624 2365" fill="none" xmlns="http://www.w3.org/2000/svg">
<path d="M1223 811.81C1223 600.54 1042.53 423 812 423C581.466 423 401 600.54 401 811.81V2364.5H240V811.81C240 504.694 499.638 262 812 262C1124.36 262 1384 504.694 1384 811.81V2364.5H1223V811.81Z" fill="#E6EDF5"/>
<path d="M1463 756.838C1463 433.592 1177.6 161 812 161C446.403 161 161 433.592 161 756.838V2364.5H0V756.838C0.000248552 333.021 369.604 0 812 0C1254.4 0 1624 333.021 1624 756.838V2364.5H1463V756.838Z" fill="#E6EDF5"/>
<path d="M982 855.5C982 761.335 905.665 685 811.5 685C717.336 685 641 761.335 641 855.5L641 2364.5L480 2364.5L480 855.5C480 672.418 628.418 524 811.5 524C994.582 524 1143 672.417 1143 855.5L1143 2364.5L982 2364.5L982 855.5Z" fill="#E6EDF5"/>
</svg>
