<svg width="415" height="196" viewBox="0 0 415 196" fill="none" xmlns="http://www.w3.org/2000/svg">
<path d="M152.825 85.4776C152.825 52.6321 124.768 25.0303 88.9275 25.0303C53.0869 25.0303 25.0303 52.6321 25.0303 85.4776V176.922H0V85.4776C0 37.7311 40.3654 0 88.9275 0C137.49 0 177.855 37.7311 177.855 85.4776V176.922H152.825V85.4776Z" fill="white"/>
<path d="M62.4981 176.922H37.4678V119.011H62.4981V176.922Z" fill="white"/>
<path d="M140.543 176.922H115.513V119.011H140.543V176.922Z" fill="white"/>
<path d="M89.0053 40.7325C111.416 40.7325 130.486 55.0368 137.582 75.0132H109.126C104.264 69.3504 97.0539 65.7628 89.0053 65.7628C80.9567 65.7629 73.7463 69.3504 68.8849 75.0132H40.4282C47.5251 55.0368 66.5947 40.7326 89.0053 40.7325Z" fill="white"/>
<path d="M3.49989 177.03L3.49989 152L61.4116 152L61.4116 177.03L3.49989 177.03Z" fill="white"/>
<path d="M119.5 177.03L119.5 152L177.412 152L177.412 177.03L119.5 177.03Z" fill="white"/>
<path d="M140.621 84.2635L140.621 109.294L101.52 109.294L101.52 177L76.4902 177L76.4902 109.294L37.0791 109.294L37.0791 84.2635L140.621 84.2635Z" fill="#FDF7EC"/>
<path d="M224.2 89H216.44V42.12C216.44 37.24 219.64 34.44 223.72 34.44C227 34.44 229.24 35.72 230.76 38.52L253.32 80.68C253.56 81.4 253.72 81.72 254.2 81.72C254.52 81.72 254.6 81.56 254.6 81.08V35.4H262.36V82.36C262.36 87.24 258.92 89.96 255.24 89.96C252.2 89.96 249.56 88.68 248.04 85.8L225.56 43.56C225.4 42.92 225.24 42.6 224.84 42.6C224.36 42.6 224.2 42.92 224.2 43.56V89Z" fill="#EEEEEE"/>
<path d="M292.581 82.28C299.861 82.28 303.861 75.96 303.861 68.68V49.8H311.781V69.64C311.781 81 304.901 89.96 292.581 89.96C280.421 89.96 273.541 80.92 273.541 69.56V49.8H281.461V68.76C281.461 75.96 285.381 82.28 292.581 82.28Z" fill="#EEEEEE"/>
<path d="M329.166 89H321.246V65.64C321.246 56.12 326.686 49 336.926 49C339.406 49 341.966 49.48 343.966 50.44V58.28C342.046 57.16 339.806 56.6 337.646 56.6C332.366 56.6 329.166 60.2 329.166 65.96V89Z" fill="#EEEEEE"/>
<path d="M351.789 31.8H359.709V89H351.789V31.8Z" fill="#EEEEEE"/>
<path d="M392.131 108.04C383.811 108.04 376.931 104.52 373.411 97.56L379.971 93.96C382.211 98.2 386.611 100.68 391.971 100.68C400.291 100.68 404.611 94.44 404.611 85.96V82.52C402.291 86.92 398.131 89.56 392.211 89.56C380.211 89.56 374.371 81.64 374.371 70.12V49.8H382.211V69.72C382.211 77.08 386.051 82.12 393.171 82.12C400.051 82.12 404.531 76.36 404.531 69.16V49.8H412.531V85.88C412.531 99 404.851 108.04 392.131 108.04Z" fill="#EEEEEE"/>
<path d="M251.16 123.4V130.92H234.68V177H226.52V130.92H210.12V123.4H251.16Z" fill="#EEEEEE"/>
<path d="M266.048 129.72C263.328 129.72 261.168 127.56 261.168 124.84C261.168 122.12 263.328 119.96 266.048 119.96C268.608 119.96 270.768 122.12 270.768 124.84C270.768 127.56 268.608 129.72 266.048 129.72ZM283.568 129.72C280.928 129.72 278.768 127.56 278.768 124.84C278.768 122.12 280.928 119.96 283.568 119.96C286.288 119.96 288.368 122.12 288.368 124.84C288.368 127.56 286.288 129.72 283.568 129.72ZM273.168 177.96C261.808 177.96 253.488 168.68 253.488 157.32C253.488 146.12 262.448 136.84 274.368 136.84C286.208 136.84 295.248 145.64 295.248 157.32V177H287.728V170.12C284.768 174.92 279.568 177.96 273.168 177.96ZM274.368 170.44C281.728 170.44 287.328 164.52 287.328 157.4C287.328 150.2 281.728 144.28 274.368 144.28C267.088 144.28 261.408 150.2 261.408 157.4C261.408 164.52 267.088 170.44 274.368 170.44Z" fill="#EEEEEE"/>
<path d="M313.793 130.04C310.913 130.04 308.593 127.72 308.593 124.84C308.593 121.96 310.913 119.56 313.793 119.56C316.673 119.56 318.913 121.96 318.913 124.84C318.913 127.72 316.673 130.04 313.793 130.04ZM309.793 137.8H317.713V180.28C317.713 189.4 312.113 195.72 302.033 195.72L301.713 188.2C306.993 188.2 309.793 184.84 309.793 180.04V137.8Z" fill="#EEEEEE"/>
<path d="M336.172 130.04C333.292 130.04 330.972 127.72 330.972 124.84C330.972 121.96 333.292 119.56 336.172 119.56C339.052 119.56 341.292 121.96 341.292 124.84C341.292 127.72 339.052 130.04 336.172 130.04ZM332.252 137.8H340.172V177H332.252V137.8Z" fill="#EEEEEE"/>
<path d="M362.594 177H354.674V153.64C354.674 144.12 360.114 137 370.354 137C372.834 137 375.394 137.48 377.394 138.44V146.28C375.474 145.16 373.234 144.6 371.074 144.6C365.794 144.6 362.594 148.2 362.594 153.96V177Z" fill="#EEEEEE"/>
<path d="M226.2 89H218.44V42.12C218.44 37.24 221.64 34.44 225.72 34.44C229 34.44 231.24 35.72 232.76 38.52L255.32 80.68C255.56 81.4 255.72 81.72 256.2 81.72C256.52 81.72 256.6 81.56 256.6 81.08V35.4H264.36V82.36C264.36 87.24 260.92 89.96 257.24 89.96C254.2 89.96 251.56 88.68 250.04 85.8L227.56 43.56C227.4 42.92 227.24 42.6 226.84 42.6C226.36 42.6 226.2 42.92 226.2 43.56V89Z" fill="#EEEEEE"/>
<path d="M294.581 82.28C301.861 82.28 305.861 75.96 305.861 68.68V49.8H313.781V69.64C313.781 81 306.901 89.96 294.581 89.96C282.421 89.96 275.541 80.92 275.541 69.56V49.8H283.461V68.76C283.461 75.96 287.381 82.28 294.581 82.28Z" fill="#EEEEEE"/>
<path d="M331.166 89H323.246V65.64C323.246 56.12 328.686 49 338.926 49C341.406 49 343.966 49.48 345.966 50.44V58.28C344.046 57.16 341.806 56.6 339.646 56.6C334.366 56.6 331.166 60.2 331.166 65.96V89Z" fill="#EEEEEE"/>
<path d="M353.79 31.8H361.71V89H353.79V31.8Z" fill="#EEEEEE"/>
<path d="M394.131 108.04C385.811 108.04 378.931 104.52 375.411 97.56L381.971 93.96C384.211 98.2 388.611 100.68 393.971 100.68C402.291 100.68 406.611 94.44 406.611 85.96V82.52C404.291 86.92 400.131 89.56 394.211 89.56C382.211 89.56 376.371 81.64 376.371 70.12V49.8H384.211V69.72C384.211 77.08 388.051 82.12 395.171 82.12C402.051 82.12 406.531 76.36 406.531 69.16V49.8H414.531V85.88C414.531 99 406.851 108.04 394.131 108.04Z" fill="#EEEEEE"/>
<path d="M253.16 123.4V130.92H236.68V177H228.52V130.92H212.12V123.4H253.16Z" fill="#EEEEEE"/>
<path d="M268.048 129.72C265.328 129.72 263.168 127.56 263.168 124.84C263.168 122.12 265.328 119.96 268.048 119.96C270.608 119.96 272.768 122.12 272.768 124.84C272.768 127.56 270.608 129.72 268.048 129.72ZM285.568 129.72C282.928 129.72 280.768 127.56 280.768 124.84C280.768 122.12 282.928 119.96 285.568 119.96C288.288 119.96 290.368 122.12 290.368 124.84C290.368 127.56 288.288 129.72 285.568 129.72ZM275.168 177.96C263.808 177.96 255.488 168.68 255.488 157.32C255.488 146.12 264.448 136.84 276.368 136.84C288.208 136.84 297.248 145.64 297.248 157.32V177H289.728V170.12C286.768 174.92 281.568 177.96 275.168 177.96ZM276.368 170.44C283.728 170.44 289.328 164.52 289.328 157.4C289.328 150.2 283.728 144.28 276.368 144.28C269.088 144.28 263.408 150.2 263.408 157.4C263.408 164.52 269.088 170.44 276.368 170.44Z" fill="#EEEEEE"/>
<path d="M315.793 130.04C312.913 130.04 310.593 127.72 310.593 124.84C310.593 121.96 312.913 119.56 315.793 119.56C318.673 119.56 320.913 121.96 320.913 124.84C320.913 127.72 318.673 130.04 315.793 130.04ZM311.793 137.8H319.713V180.28C319.713 189.4 314.113 195.72 304.033 195.72L303.713 188.2C308.993 188.2 311.793 184.84 311.793 180.04V137.8Z" fill="#EEEEEE"/>
<path d="M338.172 130.04C335.292 130.04 332.972 127.72 332.972 124.84C332.972 121.96 335.292 119.56 338.172 119.56C341.052 119.56 343.292 121.96 343.292 124.84C343.292 127.72 341.052 130.04 338.172 130.04ZM334.252 137.8H342.172V177H334.252V137.8Z" fill="#EEEEEE"/>
<path d="M364.594 177H356.674V153.64C356.674 144.12 362.114 137 372.354 137C374.834 137 377.394 137.48 379.394 138.44V146.28C377.474 145.16 375.234 144.6 373.074 144.6C367.794 144.6 364.594 148.2 364.594 153.96V177Z" fill="#EEEEEE"/>
</svg>
