<svg width="134" height="53" viewBox="0 0 134 53" fill="none" xmlns="http://www.w3.org/2000/svg">
<path d="M26.523 -0.00878906C41.0068 -0.00875829 53.0461 11.2446 53.0461 25.4852V52.7588H52.9135V52.7912H35.6413V52.7588H34.4521V35.4866H41.9175V45.3258H45.5807V25.4852C45.5807 15.6889 37.2126 7.45662 26.523 7.45659C15.8334 7.45659 7.46538 15.6889 7.46537 25.4852V45.3258H11.1749V35.4866H18.6403V52.7588H18.3161V52.7912H1.04388V52.7588H-1.14441e-05V25.4852C5.47191e-06 11.2446 12.0392 -0.00878906 26.523 -0.00878906Z" fill="#FAFBFB"/>
<path d="M26.546 12.1398C33.2301 12.1398 38.9176 16.4061 41.0344 22.364H32.5472C31.0973 20.6751 28.9465 19.6052 26.546 19.6052C24.1456 19.6052 21.995 20.6751 20.5451 22.364H12.0577C14.1744 16.4061 19.8621 12.1399 26.546 12.1398Z" fill="#FAFBFB"/>
<path d="M41.9406 25.123L41.9406 32.5884L30.2789 32.5884L30.2789 52.7821L22.8135 52.7821L22.8135 32.5884L11.059 32.5884L11.059 25.123L41.9406 25.123Z" fill="#C2D2E3"/>
<path d="M66.964 23.2546V6.55243H69.517L79.9917 19.4131H78.7271V6.55243H81.8051V23.2546H79.252L68.7773 10.3939H70.0419V23.2546H66.964Z" fill="#ECEDEF"/>
<path d="M90.9095 23.4217C89.8278 23.4217 88.8734 23.2228 88.0462 22.8252C87.2191 22.4116 86.5748 21.7912 86.1135 20.9641C85.6522 20.121 85.4216 19.0632 85.4216 17.7906V10.5132H88.4041V17.385C88.4041 18.5303 88.6586 19.3893 89.1677 19.9619C89.6926 20.5187 90.4323 20.797 91.3867 20.797C92.0866 20.797 92.691 20.6539 93.2 20.3675C93.725 20.0812 94.1306 19.6517 94.4169 19.0791C94.7192 18.5064 94.8703 17.7986 94.8703 16.9555V10.5132H97.8528V23.2546H95.0134V19.8188L95.5145 20.8686C95.085 21.6958 94.4567 22.332 93.6295 22.7774C92.8024 23.2069 91.8957 23.4217 90.9095 23.4217Z" fill="#ECEDEF"/>
<path d="M101.281 23.2546V10.5132H104.12V14.0207L103.786 12.9947C104.168 12.1357 104.764 11.4836 105.576 11.0382C106.403 10.5928 107.429 10.3701 108.654 10.3701V13.2095C108.526 13.1776 108.407 13.1617 108.296 13.1617C108.184 13.1458 108.073 13.1379 107.962 13.1379C106.832 13.1379 105.933 13.4719 105.265 14.14C104.597 14.7922 104.263 15.7705 104.263 17.0748V23.2546H101.281Z" fill="#ECEDEF"/>
<path d="M110.706 23.2546V5.55029H113.689V23.2546H110.706Z" fill="#ECEDEF"/>
<path d="M118.176 28.0506C117.556 28.0506 116.935 27.9472 116.315 27.7404C115.695 27.5336 115.178 27.2473 114.764 26.8814L115.957 24.6863C116.259 24.9567 116.601 25.1714 116.983 25.3305C117.365 25.4896 117.755 25.5691 118.152 25.5691C118.693 25.5691 119.131 25.4339 119.465 25.1635C119.799 24.8931 120.109 24.4397 120.395 23.8034L121.135 22.1332L121.373 21.7753L126.193 10.5132H129.057L123.091 24.2806C122.694 25.2351 122.248 25.9906 121.755 26.5474C121.278 27.1041 120.737 27.4938 120.133 27.7165C119.544 27.9392 118.892 28.0506 118.176 28.0506ZM120.801 23.708L115.051 10.5132H118.152L122.829 21.5128L120.801 23.708Z" fill="#ECEDEF"/>
<path d="M70.3521 46.8167V32.7391H64.8165V30.1145H78.9896V32.7391H73.454V46.8167H70.3521Z" fill="#ECEDEF"/>
<path d="M88.6826 46.8167V44.2398L88.5156 43.691V39.1814C88.5156 38.3065 88.2531 37.6305 87.7282 37.1533C87.2033 36.6602 86.4079 36.4136 85.3422 36.4136C84.6264 36.4136 83.9185 36.525 83.2186 36.7476C82.5346 36.9703 81.954 37.2805 81.4768 37.6782L80.3077 35.5069C80.9916 34.982 81.8029 34.5923 82.7414 34.3378C83.6958 34.0673 84.682 33.9321 85.7001 33.9321C87.5453 33.9321 88.9689 34.3775 89.9711 35.2683C90.9891 36.1432 91.4981 37.5032 91.4981 39.3484V46.8167H88.6826ZM84.6741 46.9837C83.7197 46.9837 82.8846 46.8247 82.1688 46.5065C81.4529 46.1725 80.8962 45.7191 80.4985 45.1465C80.1168 44.5579 79.9259 43.8978 79.9259 43.1661C79.9259 42.4503 80.0929 41.806 80.427 41.2334C80.7769 40.6607 81.3416 40.2074 82.121 39.8734C82.9005 39.5393 83.9344 39.3723 85.2229 39.3723H88.9212V41.3527H85.4376C84.4196 41.3527 83.7356 41.5197 83.3856 41.8538C83.0357 42.1719 82.8607 42.5696 82.8607 43.0468C82.8607 43.5876 83.0754 44.0171 83.5049 44.3352C83.9344 44.6534 84.5309 44.8124 85.2945 44.8124C86.0262 44.8124 86.6784 44.6454 87.251 44.3114C87.8396 43.9773 88.2611 43.4842 88.5156 42.832L89.0167 44.6216C88.7303 45.3692 88.2134 45.9498 87.4657 46.3634C86.734 46.7769 85.8035 46.9837 84.6741 46.9837ZM88.277 32.071C87.8793 32.071 87.5373 31.9438 87.251 31.6893C86.9806 31.4188 86.8454 31.0689 86.8454 30.6394C86.8454 30.2099 86.9806 29.86 87.251 29.5896C87.5373 29.3191 87.8793 29.1839 88.277 29.1839C88.6747 29.1839 89.0087 29.3191 89.2791 29.5896C89.5655 29.86 89.7086 30.2099 89.7086 30.6394C89.7086 31.0689 89.5655 31.4188 89.2791 31.6893C89.0087 31.9438 88.6747 32.071 88.277 32.071ZM83.6481 32.071C83.2504 32.071 82.9084 31.9438 82.6221 31.6893C82.3517 31.4188 82.2165 31.0689 82.2165 30.6394C82.2165 30.2099 82.3517 29.86 82.6221 29.5896C82.9084 29.3191 83.2504 29.1839 83.6481 29.1839C84.0458 29.1839 84.3798 29.3191 84.6502 29.5896C84.9366 29.86 85.0797 30.2099 85.0797 30.6394C85.0797 31.0689 84.9366 31.4188 84.6502 31.6893C84.3798 31.9438 84.0458 32.071 83.6481 32.071Z" fill="#ECEDEF"/>
<path d="M94.4907 51.6126C93.934 51.6126 93.4091 51.549 92.916 51.4217C92.4069 51.3104 91.9775 51.1275 91.6275 50.873L92.4865 48.6539C92.9478 48.988 93.5284 49.155 94.2283 49.155C94.7691 49.155 95.1906 48.98 95.4929 48.6301C95.7951 48.296 95.9462 47.795 95.9462 47.1269V34.0753H98.9288V47.0553C98.9288 48.4551 98.539 49.5606 97.7596 50.3719C96.9961 51.199 95.9065 51.6126 94.4907 51.6126ZM97.4256 31.9756C96.8688 31.9756 96.4075 31.8006 96.0417 31.4507C95.6917 31.1007 95.5167 30.6792 95.5167 30.1861C95.5167 29.677 95.6917 29.2555 96.0417 28.9215C96.4075 28.5715 96.8688 28.3965 97.4256 28.3965C97.9823 28.3965 98.4356 28.5636 98.7856 28.8976C99.1515 29.2157 99.3344 29.6214 99.3344 30.1145C99.3344 30.6394 99.1594 31.0848 98.8095 31.4507C98.4595 31.8006 97.9982 31.9756 97.4256 31.9756Z" fill="#ECEDEF"/>
<path d="M103.317 46.8167V34.0753H106.3V46.8167H103.317ZM104.82 31.9756C104.264 31.9756 103.802 31.8006 103.436 31.4507C103.087 31.1007 102.912 30.6792 102.912 30.1861C102.912 29.677 103.087 29.2555 103.436 28.9215C103.802 28.5715 104.264 28.3965 104.82 28.3965C105.377 28.3965 105.83 28.5636 106.18 28.8976C106.546 29.2157 106.729 29.6214 106.729 30.1145C106.729 30.6394 106.554 31.0848 106.204 31.4507C105.854 31.8006 105.393 31.9756 104.82 31.9756Z" fill="#ECEDEF"/>
<path d="M110.692 46.8167V34.0753H113.531V37.5828L113.197 36.5568C113.579 35.6978 114.175 35.0456 114.986 34.6002C115.814 34.1548 116.84 33.9321 118.064 33.9321V36.7715C117.937 36.7397 117.818 36.7238 117.706 36.7238C117.595 36.7079 117.484 36.6999 117.372 36.6999C116.243 36.6999 115.344 37.034 114.676 37.7021C114.008 38.3542 113.674 39.3325 113.674 40.6369V46.8167H110.692Z" fill="#ECEDEF"/>
</svg>
