<svg width="111" height="44" viewBox="0 0 111 44" fill="none" xmlns="http://www.w3.org/2000/svg">
<path d="M22.0827 -0.0075531C34.1417 -0.00752746 44.1654 9.37031 44.1654 21.2375V43.9655H44.0551V43.9924H29.6745V43.9655H28.6844V29.572H34.8999V37.7713H37.9499V21.2375C37.9499 13.0739 30.9827 6.21362 22.0827 6.21359C13.1827 6.21359 6.21558 13.0739 6.21556 21.2375V37.7713H9.30407V29.572H15.5196V43.9655H15.2497V43.9924H0.86912V43.9655H-7.62939e-06V21.2375C6.45464e-06 9.3703 10.0237 -0.0075531 22.0827 -0.0075531Z" fill="#002B54"/>
<path d="M22.1019 10.1163C27.6669 10.1163 32.4023 13.6715 34.1647 18.6365H27.0984C25.8912 17.229 24.1005 16.3374 22.1019 16.3374C20.1033 16.3375 18.3128 17.2291 17.1056 18.6365H10.0391C11.8014 13.6715 16.5369 10.1163 22.1019 10.1163Z" fill="#002B54"/>
<path d="M34.9192 20.9357L34.9192 27.1569L25.2098 27.1569L25.2098 43.9849L18.9942 43.9849L18.9942 27.1569L9.20755 27.1569L9.20755 20.9357L34.9192 20.9357Z" fill="#3A6EA5"/>
<path d="M55.7533 19.3789V5.46043H57.8789L66.6 16.1777H65.5471V5.46043H68.1098V19.3789H65.9842L57.2631 8.66169H58.316V19.3789H55.7533Z" fill="#3A6EA5"/>
<path d="M75.69 19.5181C74.7894 19.5181 73.9948 19.3524 73.3061 19.021C72.6174 18.6764 72.081 18.1594 71.697 17.4701C71.3129 16.7676 71.1209 15.8861 71.1209 14.8256V8.76111H73.6041V14.4876C73.6041 15.442 73.816 16.1578 74.2398 16.635C74.6768 17.099 75.2927 17.3309 76.0873 17.3309C76.67 17.3309 77.1733 17.2116 77.5971 16.973C78.0342 16.7344 78.3719 16.3765 78.6103 15.8993C78.8619 15.4221 78.9877 14.8322 78.9877 14.1297V8.76111H81.4709V19.3789H79.1069V16.5157L79.5241 17.3906C79.1665 18.0799 78.6434 18.6101 77.9547 18.9813C77.266 19.3392 76.5111 19.5181 75.69 19.5181Z" fill="#3A6EA5"/>
<path d="M84.3249 19.3789V8.76111H86.689V11.684L86.4108 10.829C86.7287 10.1132 87.2253 9.56971 87.9008 9.19855C88.5894 8.82739 89.4437 8.64181 90.4635 8.64181V11.008C90.3575 10.9814 90.2582 10.9682 90.1655 10.9682C90.0728 10.9549 89.9801 10.9483 89.8873 10.9483C88.947 10.9483 88.1988 11.2267 87.6425 11.7834C87.0863 12.3269 86.8082 13.1421 86.8082 14.2291V19.3789H84.3249Z" fill="#3A6EA5"/>
<path d="M92.1727 19.3789V4.62532H94.6559V19.3789H92.1727Z" fill="#3A6EA5"/>
<path d="M98.3919 23.3755C97.8754 23.3755 97.3589 23.2894 96.8424 23.1171C96.3259 22.9447 95.8954 22.7061 95.5511 22.4013L96.5444 20.572C96.796 20.7973 97.0808 20.9763 97.3986 21.1088C97.7165 21.2414 98.0409 21.3077 98.372 21.3077C98.8223 21.3077 99.1865 21.195 99.4647 20.9696C99.7428 20.7443 100.001 20.3665 100.239 19.8363L100.855 18.4444L101.054 18.1462L105.067 8.76111H107.451L102.484 20.2339C102.153 21.0293 101.782 21.6589 101.372 22.1229C100.974 22.5868 100.524 22.9116 100.021 23.0972C99.5309 23.2828 98.9879 23.3755 98.3919 23.3755ZM100.577 19.7567L95.7895 8.76111H98.372L102.266 17.9274L100.577 19.7567Z" fill="#3A6EA5"/>
<path d="M58.5742 39.014V27.2827H53.9654V25.0955H65.7656V27.2827H61.1568V39.014H58.5742Z" fill="#3A6EA5"/>
<path d="M73.836 39.014V36.8666L73.6969 36.4092V32.6512C73.6969 31.9222 73.4784 31.3588 73.0413 30.9611C72.6043 30.5502 71.9421 30.3447 71.0547 30.3447C70.4588 30.3447 69.8694 30.4375 69.2867 30.6231C68.7172 30.8087 68.2338 31.0672 67.8365 31.3986L66.8631 29.5892C67.4326 29.1517 68.108 28.827 68.8894 28.6149C69.684 28.3895 70.5051 28.2769 71.3527 28.2769C72.889 28.2769 74.0743 28.648 74.9087 29.3903C75.7563 30.1194 76.1801 31.2528 76.1801 32.7904V39.014H73.836ZM70.4985 39.1532C69.7039 39.1532 69.0086 39.0206 68.4126 38.7555C67.8166 38.4771 67.3531 38.0994 67.022 37.6221C66.7041 37.1317 66.5452 36.5816 66.5452 35.9718C66.5452 35.3753 66.6843 34.8384 66.9624 34.3612C67.2538 33.884 67.7239 33.5062 68.3729 33.2279C69.0218 32.9495 69.8827 32.8103 70.9554 32.8103H74.0346V34.4607H71.1342C70.2866 34.4607 69.7171 34.5998 69.4258 34.8782C69.1344 35.1433 68.9887 35.4747 68.9887 35.8724C68.9887 36.3231 69.1675 36.681 69.5251 36.9461C69.8827 37.2112 70.3793 37.3438 71.015 37.3438C71.6242 37.3438 72.1672 37.2046 72.644 36.9262C73.134 36.6478 73.485 36.2369 73.6969 35.6934L74.1141 37.1847C73.8757 37.8077 73.4453 38.2916 72.8228 38.6362C72.2136 38.9809 71.4388 39.1532 70.4985 39.1532ZM73.4982 26.7259C73.1671 26.7259 72.8824 26.6199 72.644 26.4078C72.4189 26.1824 72.3063 25.8908 72.3063 25.5329C72.3063 25.175 72.4189 24.8834 72.644 24.658C72.8824 24.4327 73.1671 24.32 73.4982 24.32C73.8293 24.32 74.1075 24.4327 74.3326 24.658C74.571 24.8834 74.6902 25.175 74.6902 25.5329C74.6902 25.8908 74.571 26.1824 74.3326 26.4078C74.1075 26.6199 73.8293 26.7259 73.4982 26.7259ZM69.6443 26.7259C69.3132 26.7259 69.0284 26.6199 68.79 26.4078C68.5649 26.1824 68.4523 25.8908 68.4523 25.5329C68.4523 25.175 68.5649 24.8834 68.79 24.658C69.0284 24.4327 69.3132 24.32 69.6443 24.32C69.9754 24.32 70.2535 24.4327 70.4786 24.658C70.717 24.8834 70.8362 25.175 70.8362 25.5329C70.8362 25.8908 70.717 26.1824 70.4786 26.4078C70.2535 26.6199 69.9754 26.7259 69.6443 26.7259Z" fill="#3A6EA5"/>
<path d="M78.6717 43.0106C78.2082 43.0106 77.7711 42.9576 77.3606 42.8515C76.9368 42.7587 76.5792 42.6063 76.2878 42.3942L77.003 40.545C77.3871 40.8234 77.8705 40.9626 78.4532 40.9626C78.9035 40.9626 79.2544 40.8168 79.5061 40.5251C79.7577 40.2468 79.8835 39.8292 79.8835 39.2725V28.3962H82.3668V39.2128C82.3668 40.3793 82.0423 41.3006 81.3933 41.9767C80.7576 42.6659 79.8504 43.0106 78.6717 43.0106ZM81.1152 26.6464C80.6517 26.6464 80.2676 26.5006 79.963 26.209C79.6716 25.9173 79.5259 25.5661 79.5259 25.1551C79.5259 24.7309 79.6716 24.3797 79.963 24.1013C80.2676 23.8097 80.6517 23.6639 81.1152 23.6639C81.5787 23.6639 81.9562 23.803 82.2476 24.0814C82.5522 24.3465 82.7045 24.6846 82.7045 25.0955C82.7045 25.5329 82.5588 25.9041 82.2674 26.209C81.9761 26.5006 81.592 26.6464 81.1152 26.6464Z" fill="#3A6EA5"/>
<path d="M86.0205 39.014V28.3962H88.5037V39.014H86.0205ZM87.272 26.6464C86.8085 26.6464 86.4244 26.5006 86.1198 26.209C85.8285 25.9173 85.6828 25.5661 85.6828 25.1551C85.6828 24.7309 85.8285 24.3797 86.1198 24.1013C86.4244 23.8097 86.8085 23.6639 87.272 23.6639C87.7356 23.6639 88.113 23.803 88.4044 24.0814C88.709 24.3465 88.8613 24.6846 88.8613 25.0955C88.8613 25.5329 88.7156 25.9041 88.4243 26.209C88.1329 26.5006 87.7488 26.6464 87.272 26.6464Z" fill="#3A6EA5"/>
<path d="M92.1603 39.014V28.3962H94.5243V31.319L94.2462 30.4641C94.564 29.7482 95.0607 29.2048 95.7361 28.8336C96.4248 28.4624 97.279 28.2769 98.2988 28.2769V30.643C98.1928 30.6165 98.0935 30.6032 98.0008 30.6032C97.9081 30.59 97.8154 30.5834 97.7227 30.5834C96.7824 30.5834 96.0341 30.8617 95.4779 31.4185C94.9216 31.9619 94.6435 32.7772 94.6435 33.8641V39.014H92.1603Z" fill="#3A6EA5"/>
</svg>
