<svg width="5646" height="1294" viewBox="0 0 5646 1294" fill="none" xmlns="http://www.w3.org/2000/svg">
<path d="M2 966.362C2 966.362 261.778 1017.45 262.865 789.19C263.952 560.934 -36.043 240.287 390.037 57.6825C816.117 -124.923 1433.5 243.548 1443.28 257.678C1453.06 271.808 928.07 -1.01248 563.947 52.2475C199.823 105.508 149.824 322.895 241.127 482.675C332.43 642.455 424.819 777.234 392.211 852.232C359.603 927.231 -75.1721 120.725 544.382 115.29C1163.94 109.855 1410.31 371.445 1419.73 365.648C1429.15 359.851 1458.5 295.177 1481.86 282.134C1505.23 269.091 1636.75 303.329 1631.86 318.546C1626.97 333.763 1582.95 463.109 1574.25 473.978C1565.56 484.847 1446 453.327 1438.93 415.284C1431.87 377.241 1473.17 333.492 1481.05 331.862C1488.93 330.232 1552.52 391.643 1559.58 390.285C1566.65 388.926 1587.84 353.328 1585.94 341.915C1584.04 330.502 1493.55 310.395 1497.08 305.504C1500.61 300.613 1605.5 322.08 1609.31 318.275C1613.11 314.471 1660.3 204.78 1698.71 190.287C1737.11 175.795 1906.68 227.968 1908.85 239.562C1911.02 251.156 1783.49 680.134 1761.03 697.526C1738.56 714.917 1565.38 633.033 1563.2 612.744C1561.03 592.455 1669.72 252.606 1709.58 225.795C1749.43 198.984 1867.55 248.259 1871.17 260.577C1874.79 272.896 1739.29 668.54 1750.16 725.061C1761.03 781.582 1819.72 799.697 1841.46 777.958C1863.2 756.219 2043.63 292.461 2039.28 258.404C2034.93 224.347 1933.49 200.433 1937.11 222.172C1940.73 243.911 2416.09 390.286 2424.78 401.155C2433.48 412.024 2307.39 814.19 2274.78 860.928C2242.18 907.666 1893.27 783.756 1894.36 753.321C1895.44 722.887 1952.33 577.237 1976.24 572.165C2000.15 567.093 2308.84 676.511 2293.63 662.743C2278.41 648.975 2117.54 585.209 2116.82 569.992C2116.09 554.775 2132.04 516.37 2138.56 514.196C2145.08 512.022 2338.55 586.657 2339.28 573.614C2340 560.571 2026.97 437.385 2024.07 427.24C2021.17 417.095 2041.46 310.576 2055.95 305.504C2070.44 300.432 2619.35 520.173 2626.95 531.586C2634.56 542.999 2624.24 581.042 2611.74 590.281C2599.24 599.52 2424.24 533.76 2420.44 535.391C2416.63 537.021 2366.09 717.996 2366.09 732.126C2366.09 746.256 2547.06 802.777 2547.06 817.451C2547.06 832.125 2536.19 883.212 2522.06 887.559C2507.93 891.907 2316.81 830.857 2328.41 813.466C2340 796.075 2722.6 955.492 2764.99 941.362C2807.38 927.232 2594.35 739.192 2626.95 723.975C2659.56 708.758 3278.03 735.93 3241.07 763.104C3204.12 790.278 2874.77 763.105 2878.03 783.757C2881.3 804.409 3137.81 912.015 3119.33 920.166C3100.86 928.318 2613.91 726.149 2648.69 691.367C2683.47 656.585 3298.68 715.279 3332.38 682.671C3366.07 650.063 3381.29 595.716 3361.72 598.977C3342.16 602.238 3164.99 1110.92 3169.33 1154.4C3173.68 1197.88 3238.9 1202.23 3255.2 1190.27C3271.51 1178.32 3469.69 675.063 3461 651.151C3452.3 627.238 3387.81 618.548 3389.26 629.415C3390.71 640.282 3794.32 791.73 3798.67 828.685C3803.02 865.641 3706.28 1206.58 3653.02 1246.79C3599.76 1287.01 3289.98 1182.66 3312.81 1163.1C3335.64 1143.53 3794.32 1295.7 3837.8 1285.92C3881.28 1276.14 3988.88 992.449 3987.8 957.667C3986.71 922.885 3829.83 890.277 3820.41 896.799C3810.99 903.321 3732.73 1125.78 3734.9 1147.52C3737.08 1169.26 3783.45 1167.81 3787.07 1162.01C3790.7 1156.21 3838.52 993.174 3847.22 989.551C3855.91 985.928 3892.15 998.971 3891.42 1006.22C3890.7 1013.46 3830.55 1184.48 3838.52 1194.62C3846.49 1204.76 3866.06 1202.77 3870.41 1194.08C3874.76 1185.38 3929.1 1045.71 3943.23 1040.27C3957.36 1034.84 4139.42 1105.49 4141.05 1126.14C4142.68 1146.79 4131.82 1214.18 4105.19 1240.27C4078.56 1266.36 3932.91 1196.79 3950.84 1182.12C3968.78 1167.45 4538.87 1356.57 4683.44 1219.62C4828 1082.66 4841.04 962.015 4691.04 717.454C4541.05 472.893 4766.04 396.808 5027.99 465.285C5289.95 533.762 5638.85 773.974 5638.85 768.539C5638.85 763.104 5221.47 423.981 4909.52 412.025C4597.57 400.069 4585.61 538.109 4616.04 662.019C4646.48 785.929 4791.04 848.972 4719.3 1062.01C4647.57 1275.05 4158.44 1126.14 4173.66 1163.1C4188.88 1200.05 4517.13 1310.92 4797.56 1179.4C5077.99 1047.88 4728 777.235 4923.65 714.193C5119.3 651.151 5218.21 985.927 5293.21 981.579" stroke="#0D2133" stroke-width="14" stroke-miterlimit="10"/>
</svg>
