<svg width="2297" height="1916" viewBox="0 0 2297 1916" fill="none" xmlns="http://www.w3.org/2000/svg">
<g clip-path="url(#clip0_267_279)">
<path d="M2225.98 2651C2219.62 2437.99 2209.39 1336.75 2220.32 1322.98C2233.53 1306.31 1574.32 1276.4 1556.87 1282.97C1539.41 1289.56 1513.51 1411.18 1566.77 1452.42C1620.61 1494.1 1712.36 1482.83 1737.22 1424.03C1761.75 1365.96 1768.89 890.644 1757.68 868.071C1746.53 845.628 1708.76 790.792 1701.56 847.916C1694.26 905.822 1660.46 1094.69 1810.59 1062.06C1913.11 1039.76 1899.91 779.143 1871.46 779.489C1843.02 779.834 1467.77 1024.73 1450.21 987.534C1432.82 950.673 1163.28 653.706 1086.32 643.597C1009.72 633.534 828.542 673.408 822.111 712.87C815.627 752.703 1096.13 1068.11 1102.01 1020.72C1107.83 973.838 1018.44 710.856 1020.09 698.951C1021.74 687.09 1138.8 681.437 1138.8 681.437C1138.8 681.437 1076.35 744.402 1081.04 806.578C1085.8 869.716 1116.75 972.784 1180.17 993.17C1243.99 1013.69 1351.28 1014.86 1326.48 911.718C1302.3 811.127 1277.5 767.846 1213.96 750.901C1150.8 734.062 1117.5 795.759 1120.92 833.988C1124.37 872.577 1172.27 947.808 1221.23 958.453C1270.38 969.148 1297.25 917.64 1286.43 861.596C1275.75 806.313 1239.52 783.23 1210.83 778.154C1182.21 773.079 1147.14 792.509 1143.49 822.412C1139.81 852.521 1188.47 921.236 1215.77 932.555C1243.15 943.909 1281.5 942.988 1279.86 901.526C1278.25 860.475 1314.17 856.782 1334.12 870.61C1354.16 884.49 1387.16 913.891 1391.71 929.512C1396.28 945.192 1424.29 1009.87 1418.85 1016.76C1413.4 1023.66 1147.93 1062.92 1138.02 1044.72C1128.15 1026.62 1116.03 998.063 1115.41 1003.07C1114.8 1008.08 1119.68 1066.61 1139.43 1073.34C1159.22 1080.09 1432.24 1044.29 1451.1 1036.69C1469.96 1029.11 2179.35 524.214 2180.68 509.256C2182 494.35 2065.66 206.293 2051.03 190.235C2036.48 174.26 1066.92 650.412 1202.18 646.349C1337.83 642.27 2049.64 241.881 2050.19 221.719C2050.72 201.653 2033.49 173.906 2015.68 168.969C1997.89 164.042 1801.55 157.979 1759.24 170.023C1716.84 182.09 817.355 667.41 860.545 663.749C903.761 660.096 959.723 611.494 1042.78 603.82C1125.87 596.136 1237.19 635.368 1263.38 676.276C1289.84 717.639 1431.56 912.136 1462.85 919.786C1494.22 927.454 1583.58 886.66 1583.58 886.66L1569.17 1098.39C1569.17 1098.39 1568.12 1305.62 1552.3 1246.07C1536.68 1187.36 1537.46 1087.05 1614.79 1097.99C1692.49 1108.99 2228.73 1107.1 2238.61 1115.45C2248.53 1123.82 2234.33 1213.36 2224.76 1165.97C2217.67 1130.91 2218.77 1036.31 2219.77 990.897C2220.11 975.619 2418 979.615 2418 979.615" stroke="#0D2133" stroke-width="8.3999" stroke-miterlimit="10" stroke-linecap="round" stroke-linejoin="round"/>
</g>
<defs>
<clipPath id="clip0_267_279">
<rect width="2297" height="1915.86" fill="white"/>
</clipPath>
</defs>
</svg>
