<svg width="4978" height="2478" viewBox="0 0 4978 2478" fill="none" xmlns="http://www.w3.org/2000/svg">
<path d="M3980.89 2477.94C3964.64 2477.94 3948.39 2476.99 3932.23 2475.06C3803.63 2459.69 3689.14 2388.06 3618.1 2278.53C3551.02 2175.11 3533.08 2049.71 3568.87 1934.48C3607.77 1809.25 3680.98 1711.97 3735.55 1652.41C3768.73 1616.18 3787.01 1569.32 3787.01 1520.46C3787.01 1490.4 3811.46 1465.94 3841.53 1465.94H3891.01C3925.08 1465.94 3952.8 1493.66 3952.8 1527.73V1967.68C3952.8 1994.14 3931.27 2015.67 3904.81 2015.67H3869.9C3856.41 2015.67 3843.47 2009.94 3834.39 1999.95C3825.32 1989.97 3820.84 1976.5 3822.15 1962.99C3824.45 1938.7 3846.17 1919.68 3871.59 1919.68H3926.62C3931.44 1919.68 3935.34 1923.59 3935.34 1928.41C3935.34 1933.23 3931.45 1937.13 3926.62 1937.13H3871.59C3855.07 1937.13 3840.98 1949.21 3839.51 1964.64C3838.68 1973.4 3841.44 1981.77 3847.3 1988.21C3853.08 1994.57 3861.32 1998.21 3869.9 1998.21H3904.81C3921.64 1998.21 3935.34 1984.52 3935.34 1967.68V1527.73C3935.34 1503.28 3915.46 1483.39 3891.01 1483.39H3841.53C3821.08 1483.39 3804.46 1500.02 3804.46 1520.46C3804.46 1573.69 3784.56 1624.75 3748.41 1664.2C3695.05 1722.45 3623.47 1817.51 3585.54 1939.66C3551.29 2049.92 3568.49 2169.97 3632.75 2269.03C3700.95 2374.2 3810.86 2442.98 3934.3 2457.73C4041.79 2470.57 4153.55 2438.21 4240.8 2368.93C4325.81 2301.4 4378.89 2207.2 4390.26 2103.64C4412.16 1904.33 4270.78 1729.5 4208.97 1663.59C4170.78 1622.86 4151.06 1572.51 4153.46 1521.83C4153.83 1513.99 4151.06 1506.55 4145.67 1500.91C4140.27 1495.24 4132.98 1492.12 4125.16 1492.12H4069.2C4043.5 1492.12 4022.61 1513.03 4022.61 1538.73V1920.77C4025.86 1920.06 4029.23 1919.69 4032.68 1919.69H4088.05C4101.54 1919.69 4114.48 1925.41 4123.56 1935.39C4132.63 1945.38 4137.11 1958.84 4135.81 1972.36C4133.5 1996.65 4111.78 2015.67 4086.36 2015.67H4053.14C4026.68 2015.67 4005.15 1994.15 4005.15 1967.68V1954.5C4003.56 1957.79 4002.55 1961.42 4002.24 1965.24L3987.67 2147.26C3987.3 2151.93 3983.21 2155.57 3978.63 2155.27C3973.95 2155.09 3970.25 2151.24 3970.25 2146.56V1517.72C3970.25 1474.74 4005.22 1439.76 4048.2 1439.76H4109.87C4124.3 1439.76 4136.04 1428.02 4136.04 1413.58C4136.04 1399.15 4124.3 1387.4 4109.87 1387.4H3835C3808.53 1387.4 3787.01 1365.89 3787.01 1339.42C3787.01 1312.95 3808.53 1291.43 3835 1291.43H4096.77C4113.61 1291.43 4127.32 1277.72 4127.32 1260.88C4127.32 1244.04 4113.61 1230.34 4096.77 1230.34H3923.2C3895.71 1230.34 3879.51 1210.7 3875.64 1191.23C3871.78 1171.86 3879.21 1147.62 3904.5 1137.15C3920.25 1130.64 3935.86 1126.23 3951.27 1123.95C3949.39 1107.28 3950.25 1087.64 3954.83 1064.5C3961.93 1028.53 3965.84 998.699 3967.1 970.616C3968.34 943.393 3968.51 915.894 3967.62 888.866C3961.88 716.505 3917.72 584.204 3836.4 495.641C3658.86 302.327 3437.29 370.442 3202.7 442.571C3029.53 495.812 2850.47 550.868 2690.84 490.72C2663.27 480.329 2637.5 464.376 2614.55 444.006C2579.58 465.999 2545.39 482.114 2518.06 493.255C2295.02 584.194 2116.75 437.9 1959.44 308.841C1942.81 295.202 1926.32 281.675 1909.93 268.526C1765.16 152.436 1564.74 72.0586 1393.23 149.765C1408.61 161.192 1422.27 174.357 1434.21 189.256C1467.25 230.495 1472.01 297.528 1445.28 345.192C1424.6 382.064 1388.37 400.108 1345.97 394.679C1303.95 389.324 1270.98 360.832 1257.78 318.469C1244.06 274.418 1256.17 227.142 1288.64 198.033C1311.03 177.957 1334.29 161.344 1358.14 147.906C1269.37 98.7041 1131.08 98.3373 945.439 147.075C907.691 156.986 866.88 169.021 823.673 181.765C528.183 268.929 123.49 388.301 0.433164 11.4366C-1.06223 6.85209 1.43865 1.92647 6.01875 0.431071C10.6289 -1.0599 15.5332 1.44099 17.0242 6.01665C69.1744 165.736 177.754 246.701 348.959 253.544C498.303 259.492 668.585 209.318 818.735 165.029C862.07 152.242 903.005 140.172 941.01 130.193C1137.8 78.5407 1283.72 81.3614 1376.33 138.327C1556.81 49.718 1768.82 132.996 1920.84 254.907C1937.29 268.093 1953.83 281.668 1970.51 295.349C2131.55 427.471 2298.1 564.073 2511.46 477.095C2537.03 466.669 2568.84 451.757 2601.48 431.609C2568.77 398.529 2542.86 355.995 2527.18 307.836C2500.84 226.871 2508.88 145.161 2549.27 83.6577C2613.42 -14.0348 2679.21 2.24894 2704.52 13.7745C2765.38 41.4898 2812.04 137.048 2784.51 235.124C2759.04 325.855 2694.57 390.264 2629.73 434.11C2650.16 451.561 2672.84 465.285 2696.99 474.385C2851.05 532.419 3027.21 478.263 3197.57 425.882C3427.02 355.347 3664.27 282.409 3849.24 483.836C3933.48 575.555 3979.17 711.632 3985.05 888.29C3985.96 915.762 3985.8 943.729 3984.54 971.405C3983.23 1000.37 3979.23 1031.03 3971.96 1067.88C3967.91 1088.36 3966.83 1106.5 3968.72 1122.26C3997.13 1120.95 4024.95 1127.03 4051.81 1140.42C4072.91 1150.93 4076.04 1172.21 4070.03 1187.52C4063.95 1202.96 4047.05 1216.52 4024.28 1209.83C3995.69 1201.43 3965.26 1182.59 3954.44 1141.17C3940.19 1143.2 3925.76 1147.24 3911.18 1153.27C3893.93 1160.41 3890.47 1176.35 3892.75 1187.83C3895.05 1199.39 3904.4 1212.89 3923.2 1212.89H4096.77C4123.24 1212.89 4144.76 1234.42 4144.76 1260.88C4144.76 1287.35 4123.24 1308.87 4096.77 1308.87H3835C3818.16 1308.87 3804.46 1322.57 3804.46 1339.42C3804.46 1356.25 3818.16 1369.95 3835 1369.95H4109.87C4133.92 1369.95 4153.5 1389.52 4153.5 1413.58C4153.5 1437.64 4133.92 1457.21 4109.87 1457.21H4048.2C4014.85 1457.21 3987.7 1484.35 3987.7 1517.71V1950.99C3991.14 1941.83 3997.3 1934 4005.15 1928.46V1538.72C4005.15 1503.4 4033.89 1474.67 4069.21 1474.67H4125.16C4137.81 1474.67 4149.56 1479.7 4158.3 1488.85C4167.02 1497.99 4171.49 1510 4170.9 1522.65C4168.75 1567.91 4187.28 1614.93 4221.7 1651.66C4285.17 1719.32 4430.31 1899.02 4407.62 2105.54C4395.73 2213.76 4340.34 2312.15 4251.65 2382.58C4173.89 2444.35 4077.4 2477.94 3980.89 2477.94ZM4022.61 1938.87V1967.68C4022.61 1984.52 4036.3 1998.21 4053.14 1998.21H4086.36C4102.89 1998.21 4116.97 1986.13 4118.44 1970.71C4119.28 1961.95 4116.51 1953.58 4110.65 1947.14C4104.87 1940.78 4096.63 1937.13 4088.05 1937.13H4032.68C4029.16 1937.13 4025.78 1937.75 4022.61 1938.87ZM3972.27 1139.66C3980.34 1166.43 3999.35 1184.31 4029.2 1193.09C4042.33 1196.97 4050.66 1189.08 4053.78 1181.15C4056.85 1173.34 4056.14 1162.07 4044.03 1156.03C4020.86 1144.49 3996.93 1139.03 3972.27 1139.66ZM2664.77 22.4058C2629.77 22.4058 2594.3 46.892 2563.86 93.2399C2526.39 150.29 2519.08 226.538 2543.79 302.438C2559.03 349.309 2584.46 390.484 2616.5 421.987C2679.8 379.934 2743.15 317.899 2767.7 230.407C2792.82 140.946 2751.57 54.3823 2697.28 29.6577C2686.61 24.7959 2675.71 22.4058 2664.77 22.4058ZM1375.37 158.492C1349.5 172.071 1324.36 189.441 1300.29 211.03C1272.88 235.592 1262.74 275.728 1274.44 313.281C1285.55 348.943 1313.11 372.9 1348.18 377.37C1383.74 381.933 1412.79 367.442 1430.06 336.655C1453.12 295.53 1448.97 235.579 1420.59 200.173C1407.73 184.12 1392.65 170.221 1375.37 158.492Z" fill="#0D2133"/>
</svg>
