<svg width="4594" height="2989" viewBox="0 0 4594 2989" fill="none" xmlns="http://www.w3.org/2000/svg">
<path d="M4 2695.16C4 2695.16 551.404 3042.39 541.192 2972.94C530.979 2903.5 257.277 2815.67 328.766 2770.73C400.255 2725.79 782.213 3032.18 779.149 2966.3C776.085 2900.43 575.404 2759.5 599.915 2747.24C624.425 2734.99 1637.02 2935.67 1716.68 2929.54C1796.34 2923.41 2237.53 2849.37 2250.3 2830.47C2263.06 2811.58 2246.21 2761.54 2237.53 2755.41C2228.85 2749.28 1143.74 2603.24 1113.11 2603.24C1082.47 2603.24 645.361 2701.28 632.085 2706.39C618.808 2711.5 623.574 2729.88 630.383 2729.88C637.192 2729.88 1695.23 2893.28 1717.7 2895.33C1740.17 2897.37 2141.87 2784.35 2143.23 2774.82C2144.6 2765.28 1140.68 2630.82 1110.04 2630.82C1079.4 2630.82 690.297 2702.31 699.489 2710.48C708.68 2718.65 1818.3 2893.28 1833.11 2891.75C1847.92 2890.22 2432.6 2755.07 2430.55 2751.67C2428.51 2748.26 1832.77 2680.86 1840.94 2667.24C1849.11 2653.62 2425.11 2566.48 2440.77 2545.37C2456.43 2524.26 2431.23 2349.97 2436.68 2344.52C2442.13 2339.07 3547.32 2409.2 3580 2408.18C3612.68 2407.16 3639.23 2364.26 3643.83 2323.41C3648.43 2282.56 3837.19 108.605 3832.43 88.1789C3827.66 67.7539 3732.68 8.68984 3737.28 6.13584C3741.87 3.58284 3773.19 37.1148 3769.79 98.3908C3766.38 159.668 3576.43 2279.5 3572.34 2321.37C3568.26 2363.24 3518.21 2382.65 3494.38 2383.33C3470.55 2384.01 1217.28 2240.69 1177.45 2238.65C1137.61 2236.6 1167.23 1999.67 1175.4 1993.54C1183.57 1987.41 3562.64 2041.03 3565.7 2036.43C3568.77 2031.84 3752.77 58.9028 3731.66 32.3498C3710.55 5.79683 1502.21 430.988 1439.4 452.435C1376.6 473.882 1173.02 1954.39 1176.42 1962.56C1179.83 1970.73 1243.15 1968.01 1248.59 1965.29C1254.04 1962.56 1453.19 571.924 1479.23 538.222C1505.28 504.52 3619.32 131.754 3629.53 139.924C3639.74 148.094 3496.77 1872.01 3480.43 1900.6C3464.08 1929.2 1307.66 1884.77 1293.87 1884.77C1280.08 1884.77 1266.3 1958.82 1275.49 1964.94C1284.68 1971.07 3524.34 2011.92 3539.66 2018.05C3554.98 2024.18 3552.94 2333.62 3510.04 2350.99C3467.15 2368.35 2972.34 2333.62 2966.72 2335.16C2961.11 2336.69 3027.66 2567.16 2991.57 2615.5C2955.49 2663.84 2606.21 2731.92 2523.49 2744.18C2440.77 2756.43 2431.91 2722.39 2446.21 2727.16C2460.51 2731.92 2453.7 2760.52 2471.4 2767.33C2489.1 2774.13 2973.53 2696.35 2991.23 2675.24C3008.93 2654.14 2993.62 2631.16 2987.49 2637.28C2981.36 2643.41 2948 2732.6 2972.51 2766.65C2997.02 2800.69 3149.02 2771.75 3124.51 2799.33C3100 2826.9 2841.1 2825.37 2882.47 2862.14C2923.83 2898.9 4593.62 2924.94 4593.62 2924.94" stroke="#0D2133" stroke-width="12" stroke-miterlimit="10"/>
</svg>
