<svg width="4838" height="3294" viewBox="0 0 4838 3294" fill="none" xmlns="http://www.w3.org/2000/svg">
<path d="M0 2836.02C6.38 2836.02 860.003 2897.27 694.127 2842.4C528.251 2787.53 362.375 2755.63 465.729 2747.98C569.083 2740.32 838.312 2751.8 837.036 2709.7C835.76 2667.59 808.974 2324.36 837.041 2303.94C865.108 2283.52 2176.8 1940.93 2230.39 1948.58C2283.99 1956.24 2745.25 2071.08 2743.33 2038.54C2741.42 2006 2743.33 30.8031 2666.77 9.75007C2590.22 -11.3029 2559.59 26.9761 2555.77 99.7061C2551.94 172.436 2523.23 1976.76 2546.2 1982.77C2569.16 1988.78 3639.06 2287.35 3640.98 2254.82C3642.89 2222.28 3702.22 136.072 3640.98 103.535C3579.73 70.9981 3516.57 111.191 3510.83 162.868C3505.09 214.545 3394.08 2164.86 3426.61 2174.43C3459.15 2184 3884.05 2319.89 3897.45 2354.34C3910.84 2388.79 3895.53 2767.76 3880.22 2792.64C3864.91 2817.52 3177.8 3075.9 2953.87 3154.38C2729.94 3232.85 2605.53 3324.72 2425.62 3274.95C2245.71 3225.19 874.889 2756.06 864.682 2726.29C854.475 2696.52 841.715 2355.41 854.474 2355.41C867.233 2355.41 2276.33 2844.31 2607.44 2823.26C2938.56 2802.21 3859.17 2394.54 3866.82 2421.33C3874.48 2448.13 3870.65 2515.11 3870.65 2515.11C3870.65 2515.11 2862 2930.44 2618.93 2964.89C2375.85 2999.35 840.864 2448.98 872.338 2479.6C903.812 2510.23 1122.43 2581.68 1122.43 2587.63C1122.43 2593.59 1106.27 2685.46 1130.93 2704.17C1155.6 2722.89 2065.79 3046.98 2083.66 3029.12C2101.52 3011.26 2089.61 2924.49 2070.9 2910.03C2052.18 2895.57 1159.86 2596.99 1156.45 2623.36C1153.05 2649.73 1141.99 2797.74 1145.82 2801.57C1149.65 2805.4 2465.81 3290.27 2641.89 3230.93C2817.98 3171.6 3817.06 2771.59 3861.08 2765.84C3905.1 2760.1 4837.2 2765.84 4837.2 2765.84" stroke="#0D2133" stroke-width="8" stroke-miterlimit="10"/>
</svg>
