<svg width="592" height="669" viewBox="0 0 592 669" fill="none" xmlns="http://www.w3.org/2000/svg">
<path d="M16.2398 509.67L14.7767 510.001C14.8874 510.491 15.2361 510.893 15.7056 511.072C16.175 511.251 16.7029 511.183 17.1117 510.891L16.2398 509.67ZM20.6499 497.33L20.3814 495.855C20.1137 495.903 19.8643 496.024 19.6599 496.203L20.6499 497.33ZM20.8698 497.29L22.349 497.041C22.2824 496.646 22.0601 496.293 21.7317 496.063C21.4033 495.832 20.9962 495.743 20.6014 495.815L20.8698 497.29ZM21.4498 500.31L22.9367 500.508C22.959 500.341 22.9529 500.171 22.9184 500.005L21.4498 500.31ZM202.13 642L201.161 640.855L201.16 640.856L202.13 642ZM206.33 626.89L207.689 626.256C207.687 626.251 207.685 626.246 207.682 626.241L206.33 626.89ZM205.46 625.6L206.536 624.555L206.53 624.55L205.46 625.6ZM198.7 626L199.665 627.148L199.668 627.146L198.7 626ZM193.76 636.35L192.263 636.249C192.234 636.683 192.394 637.108 192.702 637.414L193.76 636.35ZM360.85 33.3003L361.615 32.0103C361.257 31.7978 360.827 31.7437 360.427 31.8611C360.027 31.9786 359.694 32.2569 359.508 32.6295L360.85 33.3003ZM364.23 33.4603L363.742 32.042L363.736 32.044L364.23 33.4603ZM368.08 30.7903L369.168 31.8228L369.169 31.8214L368.08 30.7903ZM370.89 26.7403L369.541 26.084C369.315 26.5488 369.344 27.0974 369.618 27.5358C369.892 27.9741 370.373 28.2403 370.89 28.2403V26.7403ZM372.27 20.0903L373.756 19.8907L373.756 19.8902L372.27 20.0903ZM371.86 18.6303L370.488 19.2374C370.49 19.2419 370.492 19.2464 370.494 19.251L371.86 18.6303ZM370.82 17.2303L369.876 18.3959L369.879 18.3988L370.82 17.2303ZM359.09 28.2903L357.599 28.1272L357.599 28.1292L359.09 28.2903ZM360.81 33.3003L361.64 32.0511C361.628 32.0427 361.615 32.0346 361.602 32.0266L360.81 33.3003ZM360.84 33.3203L360.01 34.5695C360.368 34.8075 360.81 34.8804 361.226 34.7697C361.641 34.6591 361.989 34.3756 362.181 33.9911L360.84 33.3203ZM453.17 303.06L452.472 304.388C452.687 304.501 452.927 304.56 453.17 304.56V303.06ZM447.62 303.57L448.372 304.868L448.373 304.867L447.62 303.57ZM443.63 321.64L444.257 320.278L444.249 320.274L443.63 321.64ZM445.82 322.06V320.56C445.808 320.56 445.796 320.56 445.784 320.561L445.82 322.06ZM446.83 321.94L447.132 323.41L447.137 323.409L446.83 321.94ZM455.88 307.64L457.368 307.453L457.367 307.447L455.88 307.64ZM455.36 305.59L453.971 306.157L453.975 306.167L455.36 305.59ZM453.18 303.06L453.868 301.727C453.655 301.618 453.419 301.56 453.18 301.56V303.06ZM408.19 22.0003V20.5003C407.494 20.5003 406.89 20.9788 406.73 21.6561C406.57 22.3333 406.897 23.0314 407.52 23.3423L408.19 22.0003ZM408.26 22.0403L409.099 20.797L409.092 20.7922L408.26 22.0403ZM440.45 53.3403L441.658 52.4511L441.658 52.4508L440.45 53.3403ZM474.78 259.47L476.264 259.688L476.264 259.688L474.78 259.47ZM333.89 558.38L335.003 559.385L335.004 559.385L333.89 558.38ZM199.07 654.89L199.565 656.306L199.565 656.306L199.07 654.89ZM104.79 659.89L105.221 658.454L105.214 658.452L104.79 659.89ZM102.97 659.33L103.437 657.905C103.433 657.903 103.428 657.902 103.424 657.901L102.97 659.33ZM40.5299 613.37L41.7379 612.481L41.7378 612.481L40.5299 613.37ZM6.19984 407.24L7.68398 407.458L7.68399 407.458L6.19984 407.24ZM147.1 108.34L145.986 107.336L145.986 107.336L147.1 108.34ZM327.28 1.96028L327.397 3.45569L327.397 3.45568L327.28 1.96028ZM408.2 22.0003V23.5003C408.859 23.5003 409.442 23.0694 409.634 22.4386C409.827 21.8078 409.585 21.125 409.038 20.7564L408.2 22.0003ZM380.27 52.8703L379.484 54.1478C379.72 54.2933 379.992 54.3703 380.27 54.3703V52.8703ZM379.11 52.1703L378.345 53.4605C378.349 53.4632 378.354 53.4658 378.358 53.4684L379.11 52.1703ZM280.87 39.3803L281.21 40.8412L281.21 40.8411L280.87 39.3803ZM119.73 157.64L118.648 158.679C118.951 158.995 119.377 159.162 119.814 159.138C120.251 159.114 120.655 158.899 120.921 158.552L119.73 157.64ZM117.83 156.81L117.764 158.309L117.765 158.309L117.83 156.81ZM109.99 170.74L108.589 171.276C108.69 171.541 108.864 171.771 109.09 171.94L109.99 170.74ZM110.03 170.77L111.251 171.642C111.724 170.978 111.581 170.059 110.93 169.57L110.03 170.77ZM16.4298 432.22L17.9289 432.273L17.9289 432.273L16.4298 432.22ZM20.3298 494.29L19.8001 495.694C20.3037 495.884 20.8707 495.789 21.2856 495.446C21.7006 495.103 21.8998 494.564 21.8078 494.034L20.3298 494.29ZM15.1499 495.24L14.1641 494.11L14.1589 494.114L15.1499 495.24ZM11.0498 508.64L9.67558 509.242L9.6766 509.244L11.0498 508.64ZM21.4599 500.31L22.9312 500.019C22.7885 499.299 22.1459 498.788 21.4124 498.811C20.6788 498.834 20.0699 499.385 19.973 500.112L21.4599 500.31ZM37.8399 550.09L36.4921 550.749L36.4925 550.75L37.8399 550.09ZM106.3 616.74L105.74 618.132C105.768 618.143 105.797 618.154 105.826 618.163L106.3 616.74ZM106.65 616.88L106.073 618.265L106.083 618.269L106.65 616.88ZM201.63 614.85L201.117 613.441L201.117 613.441L201.63 614.85ZM446.96 191.36L445.462 191.446L445.462 191.447L446.96 191.36ZM419.44 92.8803L420.718 92.0954L420.718 92.0951L419.44 92.8803ZM380.28 52.8703L381.058 51.5879C380.823 51.4456 380.554 51.3703 380.28 51.3703V52.8703ZM379.1 52.1704L379.837 50.8639C379.612 50.737 379.358 50.6704 379.1 50.6704V52.1704ZM380.26 52.8704L379.459 54.1386C379.467 54.1435 379.474 54.1483 379.482 54.153L380.26 52.8704ZM419.42 92.8803L420.698 92.0958L420.698 92.0957L419.42 92.8803ZM446.94 191.36L448.437 191.274L448.437 191.274L446.94 191.36ZM201.61 614.85L201.097 613.441L201.097 613.441L201.61 614.85ZM106.63 616.88L106.053 618.265L106.063 618.269L106.63 616.88ZM106.28 616.74L105.72 618.132C105.748 618.143 105.777 618.154 105.805 618.163L106.28 616.74ZM37.8198 550.09L39.1672 549.431L39.1671 549.431L37.8198 550.09ZM21.4398 500.31L22.9112 500.019L22.9084 500.005L21.4398 500.31ZM20.8598 497.29L22.3365 497.027C22.3351 497.019 22.3336 497.011 22.332 497.003L20.8598 497.29ZM20.3698 494.64L18.8902 494.887C18.8913 494.893 18.8924 494.899 18.8935 494.906L20.3698 494.64ZM20.3098 494.29L21.7894 494.044L21.7876 494.033L20.3098 494.29ZM16.4099 432.22L17.9089 432.273L17.9089 432.273L16.4099 432.22ZM110.01 170.77L111.231 171.642L111.232 171.641L110.01 170.77ZM119.71 157.64L120.9 158.554L120.901 158.552L119.71 157.64ZM280.85 39.3803L281.19 40.8412L281.19 40.8411L280.85 39.3803ZM379.09 52.1704L378.325 53.4609C378.557 53.598 378.821 53.6704 379.09 53.6704V52.1704ZM404.86 228.78L403.36 228.801C403.365 229.192 403.523 229.565 403.799 229.841L404.86 228.78ZM398.6 159.15L400.054 158.784L400.054 158.784L398.6 159.15ZM357.62 93.2404L356.816 94.5067C357.508 94.9463 358.425 94.7483 358.875 94.0621C359.324 93.3759 359.139 92.456 358.459 91.9971L357.62 93.2404ZM355.17 91.6704L355.973 90.4036C355.967 90.3995 355.96 90.3955 355.954 90.3916L355.17 91.6704ZM300.73 78.4503L300.802 79.9486L300.803 79.9486L300.73 78.4503ZM52.9498 402.35L54.4428 402.495L54.4428 402.495L52.9498 402.35ZM63.8998 508.81L65.3026 508.279L65.3026 508.279L63.8998 508.81ZM124.19 573.99L124.704 572.581L124.704 572.581L124.19 573.99ZM194.46 570.06L194.996 571.461L194.996 571.461L194.46 570.06ZM263.45 526.15L264.448 527.27L264.448 527.27L263.45 526.15ZM319.65 462.8L320.871 463.672L320.871 463.672L319.65 462.8ZM396.86 289.39L395.393 289.075L395.393 289.075L396.86 289.39ZM404.87 228.79L406.368 228.855C406.37 228.827 406.37 228.798 406.37 228.77L404.87 228.79ZM20.3198 494.29L21.7994 494.044C21.7119 493.518 21.3521 493.079 20.8544 492.889L20.3198 494.29ZM20.3898 494.64L21.8662 494.375C21.8602 494.342 21.8532 494.309 21.8451 494.277L20.3898 494.64ZM20.8798 497.29L21.1483 498.766C21.5452 498.694 21.8964 498.465 22.1224 498.131C22.3485 497.796 22.4303 497.385 22.3494 496.99L20.8798 497.29ZM20.6599 497.33L20.3914 495.855C20.1246 495.903 19.8759 496.023 19.6719 496.202L20.6599 497.33ZM356.68 92.6403L355.82 93.8691C355.848 93.8893 355.878 93.9084 355.908 93.9265L356.68 92.6403ZM382.09 137.6L380.814 138.389L380.814 138.389L382.09 137.6ZM333.7 97.6703L334.177 96.2484L334.177 96.2484L333.7 97.6703ZM185.74 150.76L184.708 149.671L184.708 149.671L185.74 150.76ZM76.3398 338.32L77.7865 338.717L77.7865 338.717L76.3398 338.32ZM209.16 558.07L208.621 556.67L208.621 556.67L209.16 558.07ZM263.45 526.14L264.448 527.26C265.054 526.721 265.12 525.797 264.598 525.175C264.076 524.554 263.155 524.461 262.519 524.964L263.45 526.14ZM194.46 570.05L194.995 571.451L194.996 571.451L194.46 570.05ZM124.2 573.97L124.715 572.562L124.713 572.561L124.2 573.97ZM63.8998 508.8L65.3027 508.269L65.3026 508.269L63.8998 508.8ZM52.9498 402.34L54.4428 402.485L54.4428 402.485L52.9498 402.34ZM300.73 78.4403H302.23C302.23 78.03 302.062 77.6375 301.765 77.3544C301.467 77.0713 301.067 76.9223 300.657 76.9421L300.73 78.4403ZM119.72 157.63L120.911 158.542C121.361 157.954 121.315 157.126 120.802 156.592L119.72 157.63ZM110.02 170.76L109.12 171.96C109.443 172.203 109.851 172.305 110.25 172.243C110.65 172.18 111.007 171.96 111.242 171.631L110.02 170.76ZM109.98 170.73L108.579 171.265C108.68 171.53 108.853 171.761 109.08 171.93L109.98 170.73ZM117.82 156.8L117.754 158.299L117.754 158.299L117.82 156.8ZM198.71 626.01L199.677 627.156L199.678 627.156L198.71 626.01ZM205.47 625.61L206.546 624.565L206.54 624.56L205.47 625.61ZM206.34 626.9L206.966 628.263C207.33 628.096 207.612 627.791 207.749 627.415C207.886 627.039 207.867 626.624 207.697 626.262L206.34 626.9ZM199.61 638.4L201.107 638.495L201.107 638.494L199.61 638.4ZM200.38 643.16V644.66C200.897 644.66 201.377 644.394 201.652 643.956C201.926 643.518 201.955 642.969 201.729 642.504L200.38 643.16ZM199.59 638.4L198.093 638.304L198.093 638.305L199.59 638.4ZM206.31 626.9L207.666 626.26C207.316 625.517 206.431 625.194 205.684 625.537L206.31 626.9ZM318.28 332L316.797 331.775L316.797 331.776L318.28 332ZM263.81 412.55L264.404 413.928L264.405 413.927L263.81 412.55ZM239.05 414.67L239.53 413.249L239.524 413.247L239.05 414.67ZM237.91 414.26L237.362 415.657C237.368 415.659 237.373 415.661 237.379 415.663L237.91 414.26ZM217.71 382.04L219.201 381.873L219.2 381.873L217.71 382.04ZM263 284.98L263.83 286.23L263.839 286.224L263 284.98ZM264.29 284.13L263.476 282.87L263.471 282.873L264.29 284.13ZM302.82 279.93V281.43C303.491 281.43 304.08 280.985 304.263 280.34C304.446 279.694 304.178 279.006 303.607 278.654L302.82 279.93ZM239.03 414.67L239.75 413.354C239.675 413.313 239.596 413.279 239.515 413.251L239.03 414.67ZM240.61 415.45L241.672 414.391C241.547 414.265 241.4 414.163 241.238 414.088L240.61 415.45ZM239.04 414.68L239.521 413.26C238.782 413.009 237.975 413.367 237.664 414.082C237.353 414.797 237.642 415.631 238.329 416.001L239.04 414.68ZM263.8 412.56L264.394 413.938L264.395 413.937L263.8 412.56ZM318.27 332.01L316.787 331.785L316.787 331.786L318.27 332.01ZM302.8 279.94L303.332 278.538C302.609 278.263 301.795 278.584 301.454 279.278C301.112 279.972 301.355 280.812 302.013 281.218L302.8 279.94ZM304.48 280.68L305.151 279.339L305.151 279.339L304.48 280.68ZM305.56 281.22L306.278 279.904C306.263 279.895 306.247 279.887 306.231 279.879L305.56 281.22ZM319.77 298.81L321.174 298.284L321.174 298.283L319.77 298.81ZM320.37 343.27L318.913 342.914L318.912 342.916L320.37 343.27ZM299.55 387.46L300.751 388.358L300.752 388.358L299.55 387.46ZM264.98 415.46L264.474 414.048L264.472 414.049L264.98 415.46ZM241.24 415.74L241.825 414.359C241.82 414.357 241.816 414.355 241.811 414.353L241.24 415.74ZM241.07 415.67L240.458 417.04C240.471 417.046 240.485 417.052 240.499 417.057L241.07 415.67ZM240.6 415.46V413.96C239.892 413.96 239.28 414.455 239.133 415.148C238.985 415.84 239.342 416.541 239.988 416.83L240.6 415.46ZM241.09 415.67L240.489 417.045C240.499 417.049 240.509 417.053 240.519 417.057L241.09 415.67ZM264.28 284.13L263.467 282.87L263.461 282.873L264.28 284.13ZM262.99 284.98L263.82 286.23L263.829 286.224L262.99 284.98ZM217.7 382.04L216.209 382.207L216.209 382.208L217.7 382.04ZM241.26 415.74L241.843 414.358L241.831 414.353L241.26 415.74ZM265 415.46L264.494 414.048L264.492 414.049L265 415.46ZM299.57 387.46L300.772 388.358L300.772 388.358L299.57 387.46ZM320.39 343.27L318.933 342.914L318.932 342.916L320.39 343.27ZM319.79 298.81L321.194 298.284L321.194 298.283L319.79 298.81ZM305.58 281.22L306.298 279.904C306.283 279.895 306.267 279.887 306.251 279.879L305.58 281.22ZM302.82 279.94L301.758 280.999C301.906 281.148 302.084 281.264 302.28 281.34L302.82 279.94ZM185.75 150.77V152.27C186.134 152.27 186.503 152.123 186.782 151.859L185.75 150.77ZM333.71 97.6803L333.232 99.1023L333.233 99.1025L333.71 97.6803ZM382.1 137.61L380.824 138.399L380.824 138.399L382.1 137.61ZM209.16 558.08L208.621 556.68L208.621 556.68L209.16 558.08ZM76.3399 338.33L77.7865 338.727L77.7865 338.727L76.3399 338.33ZM185.74 150.77V149.27C185.356 149.27 184.987 149.417 184.708 149.682L185.74 150.77ZM382.4 603.4L381.854 604.797C382.028 604.865 382.213 604.9 382.4 604.9V603.4ZM321.72 579.69L320.664 578.625C320.303 578.983 320.148 579.498 320.251 579.995C320.354 580.492 320.701 580.903 321.174 581.087L321.72 579.69ZM357 540.52L356.192 539.256C356.056 539.343 355.935 539.452 355.833 539.577L357 540.52ZM475.08 291.88L473.611 291.575C473.578 291.733 473.571 291.894 473.59 292.054L475.08 291.88ZM483.01 239.84L483.746 238.533C483.304 238.284 482.765 238.276 482.315 238.511C481.865 238.746 481.564 239.193 481.517 239.699L483.01 239.84ZM538.93 271.34L539.674 270.038L539.666 270.033L538.93 271.34ZM539.77 271.82L539.026 273.123L539.034 273.127L539.77 271.82ZM580.67 322.58L579.265 323.105L579.265 323.106L580.67 322.58ZM584.14 430.46L582.678 430.126L582.678 430.126L584.14 430.46ZM533.4 537.38L534.584 538.302L534.584 538.302L533.4 537.38ZM447.66 602.95L447.178 601.53L447.178 601.53L447.66 602.95ZM382.41 603.4L382.956 602.003C382.782 601.935 382.597 601.9 382.41 601.9V603.4ZM370.82 17.2103H369.32C369.32 17.6644 369.526 18.0941 369.879 18.3788L370.82 17.2103ZM371.86 18.6103L370.488 19.2174C370.492 19.2265 370.496 19.2356 370.501 19.2446L371.86 18.6103ZM372.27 20.0703L372.757 21.489C373.433 21.2567 373.852 20.5791 373.756 19.8702L372.27 20.0703ZM364.23 33.4403L364.73 34.8544C365.405 34.6156 365.817 33.9329 365.714 33.2243L364.23 33.4403ZM360.85 33.2903L360.061 34.5661C360.067 34.5696 360.072 34.5731 360.078 34.5765L360.85 33.2903ZM359.09 28.2603L357.599 28.0972L357.599 28.0992L359.09 28.2603ZM370.82 17.2003H372.32C372.32 16.7478 372.116 16.3195 371.764 16.0347L370.82 17.2003ZM368.08 30.7803L369.172 31.8089C369.434 31.5306 369.58 31.1626 369.58 30.7803H368.08ZM364.23 33.4503L362.745 33.6659C362.81 34.108 363.068 34.4985 363.449 34.731C363.83 34.9636 364.296 35.014 364.718 34.8686L364.23 33.4503ZM372.25 20.0703L373.735 19.8572C373.671 19.4144 373.413 19.0231 373.031 18.79C372.65 18.5569 372.184 18.5064 371.761 18.6522L372.25 20.0703ZM370.89 26.7203L369.542 26.0611C369.315 26.526 369.343 27.0753 369.617 27.5144C369.891 27.9535 370.372 28.2203 370.89 28.2203V26.7203ZM368.08 30.7703L366.994 29.7358C366.728 30.0147 366.58 30.3851 366.58 30.7703H368.08ZM357.01 540.52L355.844 539.577L355.844 539.577L357.01 540.52ZM475.09 291.88L473.621 291.575L473.621 291.576L475.09 291.88ZM321.73 579.69L320.674 578.625L320.673 578.626L321.73 579.69ZM204.94 656.91L205.432 658.327L205.432 658.327L204.94 656.91ZM104.8 659.9L105.231 658.464L104.294 661.313L104.8 659.9ZM199.08 654.9L199.575 656.316L199.575 656.316L199.08 654.9ZM333.9 558.39L335.013 559.395L335.014 559.395L333.9 558.39ZM474.79 259.48L476.274 259.698L476.274 259.698L474.79 259.48ZM440.46 53.3503L441.668 52.4613L441.668 52.4608L440.46 53.3503ZM408.27 22.0503L409.007 20.7439L407.431 23.2939L408.27 22.0503ZM409.43 22.7403L410.234 21.474L410.231 21.4721L409.43 22.7403ZM410.69 23.5403L409.886 24.8066L409.886 24.807L410.69 23.5403ZM484.71 188.14L483.211 188.19L483.211 188.19L484.71 188.14ZM483.02 239.84L481.527 239.698L481.527 239.699L483.02 239.84ZM443.62 321.64V323.14C444.326 323.14 444.937 322.648 445.086 321.957C445.235 321.267 444.883 320.566 444.239 320.274L443.62 321.64ZM447.61 303.57L448.363 304.868L448.363 304.867L447.61 303.57ZM453.16 303.06L453.865 301.736L453.858 301.733L453.16 303.06ZM446.81 321.92H448.31C448.31 321.722 448.27 321.525 448.194 321.341L446.81 321.92ZM445.8 322.06L445.836 323.56L445.845 323.56L445.8 322.06ZM443.61 321.64V320.14C442.905 320.14 442.295 320.631 442.145 321.319C441.994 322.008 442.342 322.708 442.983 323.003L443.61 321.64ZM455.86 307.64L457.348 307.453L457.347 307.447L455.86 307.64ZM446.81 321.94H445.31C445.31 322.392 445.513 322.819 445.863 323.104C446.213 323.389 446.673 323.501 447.115 323.409L446.81 321.94ZM16.2398 509.67L17.7029 509.34C17.3508 507.781 17.5771 505.704 18.3263 503.622C19.0717 501.55 20.2676 499.663 21.6398 498.457L20.6499 497.33L19.6599 496.203C17.8221 497.818 16.378 500.175 15.5034 502.606C14.6326 505.027 14.2589 507.709 14.7767 510.001L16.2398 509.67ZM20.6499 497.33L20.9183 498.806L21.1382 498.766L20.8698 497.29L20.6014 495.815L20.3814 495.855L20.6499 497.33ZM20.8698 497.29L19.3906 497.539C19.5654 498.578 19.7701 499.6 19.9813 500.616L21.4498 500.31L22.9184 500.005C22.7096 499.001 22.5142 498.023 22.349 497.041L20.8698 497.29ZM21.4498 500.31L19.963 500.112C19.4822 503.723 17.3775 507.014 15.368 508.45L16.2398 509.67L17.1117 510.891C19.8621 508.926 22.3575 504.858 22.9367 500.508L21.4498 500.31ZM193.77 636.36L192.273 636.262C192.076 639.273 192.808 641.914 194.422 643.562C196.134 645.311 198.579 645.674 201.007 644.514L200.36 643.16L199.713 641.807C198.311 642.477 197.281 642.195 196.566 641.464C195.751 640.632 195.103 638.958 195.267 636.458L193.77 636.36ZM200.36 643.16L200.973 644.529C201.714 644.197 202.423 643.72 203.101 643.143L202.13 642L201.158 640.857C200.637 641.301 200.165 641.604 199.746 641.792L200.36 643.16ZM202.13 642L203.098 643.146C205.753 640.901 207.374 637.744 208.107 634.691C208.832 631.671 208.744 628.518 207.689 626.256L206.33 626.89L204.97 627.524C205.646 628.972 205.817 631.379 205.19 633.99C204.571 636.567 203.226 639.109 201.161 640.855L202.13 642ZM206.33 626.89L207.682 626.241C207.389 625.631 207.013 625.047 206.536 624.555L205.46 625.6L204.384 626.646C204.586 626.854 204.791 627.15 204.978 627.539L206.33 626.89ZM205.46 625.6L206.53 624.55C205.501 623.5 204.128 622.807 202.515 622.819C200.922 622.831 199.3 623.529 197.732 624.854L198.7 626L199.668 627.146C200.869 626.131 201.838 625.824 202.538 625.819C203.217 625.814 203.839 626.09 204.389 626.651L205.46 625.6ZM198.7 626L197.734 624.852C194.475 627.593 192.535 632.214 192.263 636.249L193.76 636.35L195.256 636.451C195.485 633.067 197.144 629.268 199.665 627.148L198.7 626ZM193.76 636.35L192.702 637.414L192.712 637.424L193.77 636.36L194.827 635.296L194.817 635.286L193.76 636.35ZM360.85 33.3003L360.084 34.5903C361.464 35.409 363.125 35.4344 364.724 34.8766L364.23 33.4603L363.736 32.044C362.755 32.3861 362.056 32.2716 361.615 32.0103L360.85 33.3003ZM364.23 33.4603L364.718 34.8786C366.22 34.3617 367.746 33.3215 369.168 31.8228L368.08 30.7903L366.992 29.7578C365.814 30.9991 364.68 31.7189 363.742 32.042L364.23 33.4603ZM368.08 30.7903L369.169 31.8214C370.053 30.8872 370.833 29.7893 371.374 28.9441C371.647 28.5176 371.87 28.1385 372.025 27.855C372.1 27.7174 372.17 27.5824 372.222 27.4669C372.244 27.4199 372.287 27.3235 372.322 27.212C372.331 27.181 372.385 27.0152 372.392 26.8007C372.395 26.7147 372.404 26.4059 372.231 26.0642C372.132 25.8686 371.962 25.6423 371.691 25.4715C371.416 25.2987 371.13 25.2403 370.89 25.2403V26.7403V28.2403C370.651 28.2403 370.366 28.1822 370.092 28.01C369.822 27.8397 369.653 27.6144 369.554 27.4199C369.383 27.0805 369.391 26.7751 369.394 26.6936C369.402 26.4882 369.452 26.3359 369.456 26.3227C369.48 26.2467 369.502 26.2029 369.492 26.2239C369.483 26.2446 369.452 26.3079 369.391 26.4188C369.275 26.6322 369.088 26.9505 368.848 27.3266C368.361 28.0863 367.696 29.0133 366.99 29.7592L368.08 30.7903ZM370.89 26.7403L372.239 27.3967C373.21 25.4012 374.102 22.4668 373.756 19.8907L372.27 20.0903L370.783 20.2899C371.017 22.0337 370.39 24.3394 369.541 26.084L370.89 26.7403ZM372.27 20.0903L373.756 19.8902C373.669 19.2384 373.492 18.595 373.225 18.0096L371.86 18.6303L370.494 19.251C370.628 19.5455 370.731 19.9021 370.783 20.2904L372.27 20.0903ZM371.86 18.6303L373.231 18.0231C372.873 17.2128 372.372 16.554 371.76 16.0618L370.82 17.2303L369.879 18.3988C370.088 18.5666 370.307 18.8277 370.488 19.2374L371.86 18.6303ZM370.82 17.2303L371.764 16.0647C370.434 14.9874 368.79 14.8748 367.28 15.2717C365.787 15.6639 364.3 16.5721 362.98 17.7607C360.343 20.1357 358.059 23.9184 357.599 28.1272L359.09 28.2903L360.581 28.4534C360.951 25.0722 362.822 21.9399 364.987 19.9899C366.069 19.016 367.144 18.4092 368.042 18.1732C368.922 17.942 369.496 18.0882 369.876 18.3959L370.82 17.2303ZM359.09 28.2903L357.599 28.1292C357.296 30.9338 358.065 33.3593 360.018 34.574L360.81 33.3003L361.602 32.0266C361.015 31.6613 360.344 30.6468 360.581 28.4514L359.09 28.2903ZM360.81 33.3003L359.98 34.5496L360.01 34.5695L360.84 33.3203L361.67 32.071L361.64 32.0511L360.81 33.3003ZM360.84 33.3203L362.181 33.9911L362.191 33.9711L360.85 33.3003L359.508 32.6295L359.498 32.6494L360.84 33.3203ZM453.17 303.06L453.868 301.733C451.719 300.603 449.146 300.949 446.866 302.273L447.62 303.57L448.373 304.867C450.054 303.891 451.501 303.878 452.472 304.388L453.17 303.06ZM447.62 303.57L446.868 302.273C442.836 304.609 440.347 308.96 439.534 312.988C439.126 315.013 439.118 317.062 439.628 318.829C440.143 320.611 441.22 322.194 443.01 323.006L443.63 321.64L444.249 320.274C443.46 319.916 442.851 319.175 442.511 317.997C442.167 316.805 442.136 315.262 442.475 313.581C443.158 310.196 445.244 306.681 448.372 304.868L447.62 303.57ZM443.63 321.64L443.003 323.003C443.859 323.397 444.809 323.585 445.856 323.56L445.82 322.06L445.784 320.561C445.151 320.576 444.66 320.463 444.257 320.278L443.63 321.64ZM445.82 322.06V323.56C446.294 323.56 446.745 323.489 447.132 323.409L446.83 321.94L446.527 320.471C446.235 320.531 446.006 320.56 445.82 320.56V322.06ZM446.83 321.94L447.137 323.409C450.101 322.789 452.843 320.335 454.706 317.458C456.588 314.554 457.8 310.879 457.368 307.453L455.88 307.64L454.392 307.828C454.71 310.352 453.812 313.322 452.188 315.827C450.547 318.361 448.389 320.082 446.523 320.472L446.83 321.94ZM455.88 307.64L457.367 307.447C457.254 306.576 457.056 305.762 456.744 305.013L455.36 305.59L453.975 306.167C454.163 306.619 454.306 307.165 454.392 307.834L455.88 307.64ZM455.36 305.59L456.749 305.023C456.144 303.544 455.161 302.395 453.868 301.727L453.18 303.06L452.492 304.393C453.059 304.686 453.595 305.237 453.971 306.157L455.36 305.59ZM453.18 303.06V301.56H453.17V303.06V304.56H453.18V303.06ZM408.19 22.0003C407.52 23.3423 407.52 23.3423 407.52 23.3422C407.52 23.3422 407.519 23.3422 407.519 23.3422C407.519 23.3421 407.519 23.3421 407.519 23.342C407.519 23.342 407.519 23.3419 407.519 23.3418C407.518 23.3416 407.518 23.3415 407.518 23.3413C407.517 23.341 407.516 23.3406 407.516 23.3403C407.515 23.3397 407.513 23.3392 407.512 23.3386C407.51 23.3376 407.508 23.3366 407.507 23.3357C407.503 23.334 407.5 23.3321 407.496 23.3299C407.494 23.3291 407.467 23.3146 407.428 23.2884L408.26 22.0403L409.092 20.7922C409.023 20.746 408.96 20.7115 408.931 20.6957C408.914 20.686 408.898 20.6779 408.886 20.6718C408.88 20.6687 408.875 20.666 408.871 20.6638C408.869 20.6627 408.867 20.6617 408.865 20.6608C408.864 20.6603 408.863 20.6599 408.862 20.6595C408.862 20.6593 408.861 20.6591 408.861 20.6589C408.861 20.6588 408.861 20.6587 408.86 20.6586C408.86 20.6586 408.86 20.6585 408.86 20.6585C408.86 20.6584 408.86 20.6584 408.86 20.6584C408.86 20.6584 408.86 20.6583 408.19 22.0003ZM408.26 22.0403L407.421 23.2836C419.298 31.3008 429.976 41.6477 439.242 54.2298L440.45 53.3403L441.658 52.4508C432.203 39.6128 421.281 29.0198 409.099 20.797L408.26 22.0403ZM440.45 53.3403L439.242 54.2295C479.732 109.24 483.239 191.425 473.296 259.253L474.78 259.47L476.264 259.688C486.24 191.635 482.868 108.44 441.658 52.4511L440.45 53.3403ZM474.78 259.47L473.296 259.253C457.679 365.718 405.059 477.234 332.776 557.376L333.89 558.38L335.004 559.385C407.681 478.806 460.561 366.743 476.264 259.688L474.78 259.47ZM333.89 558.38L332.776 557.375C296.476 597.606 249.937 635.519 198.575 653.474L199.07 654.89L199.565 656.306C251.582 638.122 298.523 599.815 335.003 559.385L333.89 558.38ZM199.07 654.89L198.575 653.474C165.585 665.004 133.555 666.964 105.221 658.454L104.79 659.89L104.358 661.327C133.425 670.057 166.115 667.997 199.565 656.306L199.07 654.89ZM104.79 659.89L105.214 658.452C104.607 658.272 104.025 658.098 103.437 657.905L102.97 659.33L102.503 660.756C103.135 660.963 103.753 661.148 104.365 661.329L104.79 659.89ZM102.97 659.33L103.424 657.901C79.7618 650.392 58.6601 635.47 41.7379 612.481L40.5299 613.37L39.3219 614.26C56.5996 637.731 78.2179 653.049 102.516 660.76L102.97 659.33ZM40.5299 613.37L41.7378 612.481C1.2481 557.48 -2.25954 475.295 7.68398 407.458L6.19984 407.24L4.7157 407.023C-5.26078 475.085 -1.88838 558.28 39.3219 614.26L40.5299 613.37ZM6.19984 407.24L7.68399 407.458C23.2109 301.512 75.6217 189.815 148.214 109.345L147.1 108.34L145.986 107.336C72.9979 188.245 20.3288 300.489 4.7157 407.023L6.19984 407.24ZM147.1 108.34L148.214 109.345C194.235 58.3323 259.381 8.78986 327.397 3.45569L327.28 1.96028L327.163 0.464871C257.978 5.8907 192.165 56.1483 145.986 107.336L147.1 108.34ZM327.28 1.96028L327.397 3.45568C357.538 1.08992 384.666 7.94922 407.362 23.2442L408.2 22.0003L409.038 20.7564C385.734 5.05142 357.921 -1.94936 327.162 0.464879L327.28 1.96028ZM408.2 22.0003V20.5003H408.19V22.0003V23.5003H408.2V22.0003ZM380.27 52.8703L381.056 51.5928C380.669 51.3549 380.262 51.104 379.861 50.8722L379.11 52.1703L378.358 53.4684C378.718 53.6766 379.09 53.9057 379.484 54.1478L380.27 52.8703ZM379.11 52.1703L379.875 50.8801C352.708 34.7683 318.848 28.9883 280.529 37.9194L280.87 39.3803L281.21 40.8411C318.832 32.0723 351.892 37.7723 378.345 53.4605L379.11 52.1703ZM280.87 39.3803L280.53 37.9193C221.783 51.598 164.633 96.4888 118.539 156.729L119.73 157.64L120.921 158.552C166.786 98.6119 223.397 54.3025 281.21 40.8412L280.87 39.3803ZM119.73 157.64L120.812 156.602C120.037 155.795 118.929 155.357 117.895 155.312L117.83 156.81L117.765 158.309C118.111 158.324 118.462 158.486 118.648 158.679L119.73 157.64ZM117.83 156.81L117.896 155.312C116.371 155.244 114.911 156.066 113.74 157.057C112.522 158.086 111.379 159.493 110.452 161.039C109.524 162.587 108.774 164.336 108.39 166.078C108.009 167.805 107.963 169.642 108.589 171.276L109.99 170.74L111.391 170.204C111.046 169.304 111.014 168.11 111.32 166.724C111.622 165.352 112.232 163.903 113.025 162.582C113.819 161.258 114.759 160.123 115.676 159.348C116.639 158.534 117.364 158.291 117.764 158.309L117.83 156.81ZM109.99 170.74L109.09 171.94L109.13 171.97L110.03 170.77L110.93 169.57L110.89 169.54L109.99 170.74ZM110.03 170.77L108.809 169.899C54.9756 245.35 18.0826 341.929 14.9307 432.168L16.4298 432.22L17.9289 432.273C21.0571 342.712 57.7041 246.691 111.251 171.642L110.03 170.77ZM16.4298 432.22L14.9308 432.168C14.2078 452.723 15.2713 473.918 18.8519 494.547L20.3298 494.29L21.8078 494.034C18.2684 473.643 17.2119 452.658 17.9289 432.273L16.4298 432.22ZM20.3298 494.29L20.8596 492.887L19.8796 492.517L19.3498 493.92L18.82 495.324L19.8001 495.694L20.3298 494.29ZM19.3498 493.92L19.883 492.518C18.7322 492.081 17.5834 492.236 16.6334 492.589C15.6884 492.941 14.8396 493.521 14.1642 494.11L15.1499 495.24L16.1356 496.371C16.6301 495.94 17.1713 495.59 17.6788 495.401C18.1813 495.214 18.5474 495.22 18.8166 495.322L19.3498 493.92ZM15.1499 495.24L14.1589 494.114C12.0181 495.998 10.5006 498.782 9.70322 501.495C8.91897 504.163 8.73672 507.096 9.67558 509.242L11.0498 508.64L12.4241 508.039C11.8929 506.825 11.8857 504.708 12.5815 502.341C13.2641 500.019 14.5316 497.783 16.1408 496.366L15.1499 495.24ZM11.0498 508.64L9.6766 509.244C10.3718 510.825 11.5333 511.894 13.0872 512.114C14.533 512.319 15.9489 511.729 17.1217 510.891L16.2498 509.67L15.378 508.45C14.5208 509.062 13.8817 509.197 13.5075 509.144C13.2414 509.106 12.8179 508.935 12.423 508.037L11.0498 508.64ZM16.2498 509.67L17.1217 510.891C19.8722 508.926 22.3675 504.858 22.9467 500.508L21.4599 500.31L19.973 500.112C19.4922 503.723 17.3875 507.014 15.378 508.45L16.2498 509.67ZM21.4599 500.31L19.9885 500.602C23.4496 518.058 28.8066 535.015 36.4921 550.749L37.8399 550.09L39.1877 549.432C31.6331 533.966 26.3501 517.262 22.9312 500.019L21.4599 500.31ZM37.8399 550.09L36.4925 550.75C52.9715 584.434 77.3978 606.732 105.74 618.132L106.3 616.74L106.86 615.349C79.2619 604.248 55.3682 582.506 39.1873 549.431L37.8399 550.09ZM106.3 616.74L105.826 618.163C105.876 618.18 105.896 618.191 106.073 618.265L106.65 616.88L107.227 615.496C107.163 615.469 106.963 615.38 106.774 615.317L106.3 616.74ZM106.65 616.88L106.083 618.269C136.006 630.47 169.727 628.066 202.143 616.26L201.63 614.85L201.117 613.441C169.173 625.075 136.254 627.331 107.216 615.491L106.65 616.88ZM201.63 614.85L202.143 616.26C270.461 591.388 334.412 526.57 380.067 447.4C425.735 368.208 453.248 274.399 448.457 191.274L446.96 191.36L445.462 191.447C450.212 273.852 422.92 367.083 377.468 445.901C332.003 524.741 268.519 588.902 201.117 613.441L201.63 614.85ZM446.96 191.36L448.457 191.274C446.489 157.05 438.613 121.24 420.718 92.0954L419.44 92.8803L418.162 93.6651C435.707 122.24 443.511 157.51 445.462 191.446L446.96 191.36ZM419.44 92.8803L420.718 92.0951C410.433 75.3541 397.232 61.3997 381.058 51.5879L380.28 52.8703L379.502 54.1528C395.208 63.6809 408.087 77.2664 418.162 93.6655L419.44 92.8803ZM380.28 52.8703V51.3703H380.27V52.8703V54.3703H380.28V52.8703ZM379.1 52.1704L378.363 53.4768C378.721 53.6789 379.087 53.9038 379.459 54.1386L380.26 52.8704L381.061 51.6021C380.673 51.357 380.259 51.1018 379.837 50.8639L379.1 52.1704ZM380.26 52.8704L379.482 54.153C395.198 63.6811 408.077 77.2664 418.141 93.665L419.42 92.8803L420.698 92.0957C410.423 75.3542 397.222 61.3996 381.037 51.5877L380.26 52.8704ZM419.42 92.8803L418.141 93.6649C435.677 122.24 443.481 157.51 445.442 191.447L446.94 191.36L448.437 191.274C446.459 157.05 438.583 121.24 420.698 92.0958L419.42 92.8803ZM446.94 191.36L445.442 191.447C450.192 273.852 422.903 367.083 377.452 445.901C331.988 524.741 268.504 588.902 201.097 613.441L201.61 614.85L202.123 616.26C270.446 591.388 334.397 526.57 380.051 447.4C425.717 368.208 453.228 274.399 448.437 191.274L446.94 191.36ZM201.61 614.85L201.097 613.441C169.153 625.075 136.234 627.331 107.196 615.491L106.63 616.88L106.063 618.269C135.986 630.47 169.707 628.066 202.123 616.26L201.61 614.85ZM106.63 616.88L107.207 615.496C107.143 615.469 106.943 615.38 106.754 615.317L106.28 616.74L105.805 618.163C105.856 618.18 105.876 618.191 106.053 618.265L106.63 616.88ZM106.28 616.74L106.84 615.349C79.2419 604.248 55.3482 582.506 39.1672 549.431L37.8198 550.09L36.4724 550.75C52.9515 584.434 77.3777 606.732 105.72 618.132L106.28 616.74ZM37.8198 550.09L39.1671 549.431C31.6033 533.976 26.3303 517.263 22.9112 500.019L21.4398 500.31L19.9685 500.602C23.4294 518.057 28.7763 535.024 36.4725 550.75L37.8198 550.09ZM21.4398 500.31L22.9084 500.005C22.7019 499.012 22.5145 498.026 22.3365 497.027L20.8598 497.29L19.3831 497.553C19.5651 498.575 19.7578 499.589 19.9712 500.616L21.4398 500.31ZM20.8598 497.29L22.332 497.003C22.1645 496.146 22.0065 495.267 21.8461 494.375L20.3698 494.64L18.8935 494.906C19.0531 495.794 19.2151 496.695 19.3876 497.578L20.8598 497.29ZM20.3698 494.64L21.8494 494.394C21.8384 494.328 21.8275 494.265 21.8176 494.208C21.8075 494.15 21.7984 494.098 21.7894 494.044L20.3098 494.29L18.8302 494.537C18.8412 494.603 18.8521 494.666 18.862 494.722C18.8721 494.781 18.8812 494.833 18.8902 494.887L20.3698 494.64ZM20.3098 494.29L21.7876 494.033C18.2384 473.643 17.1919 452.658 17.9089 432.273L16.4099 432.22L14.9108 432.168C14.1878 452.722 15.2412 473.918 18.832 494.548L20.3098 494.29ZM16.4099 432.22L17.9089 432.273C21.0371 342.712 57.6841 246.691 111.231 171.642L110.01 170.77L108.789 169.899C54.9556 245.35 18.0626 341.929 14.9108 432.168L16.4099 432.22ZM110.01 170.77L111.232 171.641C114.392 167.204 117.611 162.838 120.9 158.554L119.71 157.64L118.52 156.727C115.208 161.042 111.968 165.437 108.788 169.9L110.01 170.77ZM119.71 157.64L120.901 158.552C166.776 98.6118 223.377 54.3025 281.19 40.8412L280.85 39.3803L280.51 37.9194C221.763 51.5981 164.623 96.4889 118.519 156.729L119.71 157.64ZM280.85 39.3803L281.19 40.8411C318.802 32.0724 351.862 37.7821 378.325 53.4609L379.09 52.1704L379.854 50.8798C352.678 34.7787 318.818 28.9882 280.509 37.9195L280.85 39.3803ZM379.09 52.1704V53.6704H379.1V52.1704V50.6704H379.09V52.1704ZM404.86 228.78L406.358 228.845C407.383 205.086 405.698 181.206 400.054 158.784L398.6 159.15L397.145 159.516C402.702 181.595 404.377 205.175 403.361 228.716L404.86 228.78ZM398.6 159.15L400.054 158.784C393.441 132.531 380.471 106.511 357.815 91.5877L356.99 92.8403L356.165 94.093C377.929 108.429 390.619 133.61 397.145 159.517L398.6 159.15ZM356.99 92.8403L356.186 94.1066L356.816 94.5067L357.62 93.2404L358.424 91.9741L357.794 91.574L356.99 92.8403ZM357.62 93.2404L358.459 91.9971C358.051 91.7217 357.619 91.4371 357.181 91.1696L356.4 92.4503L355.619 93.731C356 93.9636 356.389 94.219 356.781 94.4836L357.62 93.2404ZM356.4 92.4503L357.203 91.1836C356.998 91.0535 356.793 90.9235 356.588 90.7936C356.383 90.6636 356.178 90.5336 355.973 90.4036L355.17 91.6704L354.367 92.9371C354.572 93.0671 354.777 93.1971 354.982 93.3271C355.187 93.4571 355.392 93.5871 355.597 93.7171L356.4 92.4503ZM355.17 91.6704L355.954 90.3916C339.672 80.409 320.858 75.9689 300.657 76.9521L300.73 78.4503L300.803 79.9486C320.461 78.9918 338.667 83.3117 354.386 92.9491L355.17 91.6704ZM300.73 78.4503L300.657 76.9521C245.328 79.6237 186.834 121.686 140.361 182.47C93.8423 243.313 59.1121 323.229 51.4568 402.206L52.9498 402.35L54.4428 402.495C62.0376 324.142 96.5223 244.747 142.744 184.293C189.01 123.779 246.782 82.557 300.802 79.9486L300.73 78.4503ZM52.9498 402.35L51.4568 402.206C48.0443 437.405 49.8962 476.069 62.4971 509.342L63.8998 508.81L65.3026 508.279C52.9235 475.592 51.0554 437.435 54.4428 402.495L52.9498 402.35ZM63.8998 508.81L62.4971 509.342C74.1518 540.118 94.3503 564.708 123.676 575.4L124.19 573.99L124.704 572.581C96.4293 562.273 76.7479 538.502 65.3026 508.279L63.8998 508.81ZM124.19 573.99L123.676 575.399C146.834 583.85 172.253 580.161 194.996 571.461L194.46 570.06L193.924 568.659C171.547 577.219 146.926 580.69 124.704 572.581L124.19 573.99ZM194.46 570.06L194.996 571.461C219.833 561.958 243.306 546.102 264.448 527.27L263.45 526.15L262.452 525.03C241.493 543.699 218.326 559.323 193.924 568.659L194.46 570.06ZM263.45 526.15L264.448 527.27C286.016 508.033 305.168 485.665 320.871 463.672L319.65 462.8L318.429 461.929C302.831 483.775 283.824 505.968 262.451 525.031L263.45 526.15ZM319.65 462.8L320.871 463.672C356.842 413.266 384.881 352.268 398.326 289.705L396.86 289.39L395.393 289.075C382.039 351.213 354.177 411.835 318.429 461.929L319.65 462.8ZM396.86 289.39L398.326 289.706C402.521 270.216 405.464 249.572 406.368 228.856L404.87 228.79L403.371 228.725C402.475 249.249 399.558 269.724 395.393 289.075L396.86 289.39ZM404.87 228.79L405.931 227.73L405.92 227.72L404.86 228.78L403.799 229.841L403.809 229.851L404.87 228.79ZM20.3198 494.29L18.8402 494.537C18.8623 494.669 18.8901 494.826 18.9346 495.004L20.3898 494.64L21.8451 494.277C21.8296 494.215 21.8173 494.151 21.7994 494.044L20.3198 494.29ZM20.3898 494.64L18.9135 494.906C19.0703 495.778 19.2255 496.688 19.4103 497.591L20.8798 497.29L22.3494 496.99C22.1742 496.133 22.0294 495.283 21.8662 494.375L20.3898 494.64ZM20.8798 497.29L20.6114 495.815L20.3914 495.855L20.6599 497.33L20.9283 498.806L21.1483 498.766L20.8798 497.29ZM20.6599 497.33L19.6719 496.202C17.832 497.812 16.3901 500.169 15.5169 502.599C14.6472 505.02 14.2748 507.703 14.7857 509.997L16.2498 509.67L17.7139 509.344C17.3649 507.778 17.5925 505.695 18.3403 503.614C19.0846 501.542 20.2777 499.658 21.6479 498.459L20.6599 497.33ZM16.2498 509.67L15.382 508.447C14.523 509.056 13.882 509.193 13.5055 509.14C13.2392 509.103 12.8171 508.933 12.423 508.037L11.0498 508.64L9.6766 509.244C10.3725 510.827 11.5354 511.893 13.0892 512.111C14.5326 512.313 15.9466 511.724 17.1177 510.894L16.2498 509.67ZM11.0498 508.64L12.4241 508.039C11.8929 506.825 11.8857 504.71 12.5814 502.345C13.2639 500.024 14.5316 497.787 16.1425 496.365L15.1499 495.24L14.1572 494.116C12.0181 496.004 10.5008 498.786 9.70328 501.498C8.91895 504.165 8.73672 507.096 9.67558 509.242L11.0498 508.64ZM19.3498 493.92L18.8152 495.322L19.7853 495.692L20.3198 494.29L20.8544 492.889L19.8844 492.519L19.3498 493.92ZM355.17 91.6704L354.367 92.9371C354.808 93.2169 355.177 93.4413 355.575 93.7031L356.4 92.4503L357.225 91.1976C356.802 90.9193 356.352 90.6438 355.973 90.4036L355.17 91.6704ZM356.4 92.4503L355.568 93.6984C355.659 93.7593 355.736 93.8103 355.82 93.8691L356.68 92.6403L357.54 91.4114C357.424 91.3303 357.321 91.2613 357.232 91.2022L356.4 92.4503ZM356.68 92.6403L355.908 93.9265C355.985 93.9729 356.065 94.0237 356.13 94.0692L356.99 92.8403L357.85 91.6115C357.715 91.5169 357.574 91.4277 357.452 91.354L356.68 92.6403ZM356.99 92.8403L356.165 94.0932C377.939 108.429 390.619 133.61 397.145 159.517L398.6 159.15L400.054 158.784C393.441 132.531 380.481 106.511 357.815 91.5875L356.99 92.8403ZM398.6 159.15L397.145 159.516C402.702 181.594 404.367 205.184 403.361 228.716L404.86 228.78L406.358 228.844C407.373 205.096 405.698 181.206 400.054 158.784L398.6 159.15ZM404.86 228.78L406.36 228.76C405.928 197.318 399.864 163.502 383.366 136.812L382.09 137.6L380.814 138.389C396.916 164.438 402.932 197.643 403.36 228.801L404.86 228.78ZM382.09 137.6L383.366 136.812C371.593 117.755 355.192 103.308 334.177 96.2484L333.7 97.6703L333.222 99.0922C353.468 105.893 369.346 119.826 380.814 138.389L382.09 137.6ZM333.7 97.6703L334.177 96.2484C308.129 87.501 280.623 91.5176 254.757 102.349C228.891 113.18 204.549 130.87 184.708 149.671L185.74 150.76L186.772 151.849C206.43 133.221 230.474 115.77 255.915 105.116C281.356 94.463 308.081 90.6496 333.222 99.0923L333.7 97.6703ZM185.74 150.76L184.708 149.671C135.614 196.194 94.89 264.98 74.8932 337.924L76.3398 338.32L77.7865 338.717C97.6497 266.261 138.105 197.966 186.772 151.849L185.74 150.76ZM76.3398 338.32L74.8932 337.924C53.5575 415.74 59.5139 481.613 84.7439 522.868C97.3741 543.52 114.845 558.007 136.11 564.645C157.368 571.281 182.271 570.028 209.699 559.47L209.16 558.07L208.621 556.67C181.689 567.038 157.49 568.177 137.004 561.782C116.524 555.388 99.6068 541.421 87.3033 521.303C62.6658 481.017 56.5722 416.09 77.7865 338.717L76.3398 338.32ZM209.16 558.07L209.699 559.47C229.384 551.893 247.915 540.354 264.381 527.316L263.45 526.14L262.519 524.964C246.225 537.866 227.955 549.228 208.621 556.67L209.16 558.07ZM263.45 526.14L262.452 525.02C241.493 543.689 218.326 559.312 193.924 568.649L194.46 570.05L194.996 571.451C219.833 561.948 243.306 546.092 264.448 527.26L263.45 526.14ZM194.46 570.05L193.924 568.649C171.546 577.2 146.926 580.68 124.715 572.562L124.2 573.97L123.685 575.379C146.834 583.841 172.253 580.141 194.995 571.451L194.46 570.05ZM124.2 573.97L124.713 572.561C96.4389 562.262 76.7478 538.502 65.3027 508.269L63.8998 508.8L62.497 509.331C74.1519 540.119 94.3607 564.698 123.686 575.38L124.2 573.97ZM63.8998 508.8L65.3026 508.269C52.9235 475.582 51.0554 437.425 54.4428 402.485L52.9498 402.34L51.4568 402.196C48.0443 437.395 49.8962 476.059 62.4971 509.332L63.8998 508.8ZM52.9498 402.34L54.4428 402.485C62.0376 324.132 96.5223 244.737 142.744 184.283C189.01 123.769 246.782 82.547 300.802 79.9386L300.73 78.4403L300.657 76.9421C245.328 79.6137 186.834 121.676 140.361 182.461C93.8423 243.303 59.1121 323.219 51.4568 402.196L52.9498 402.34ZM300.73 78.4403H299.23V78.4503H300.73H302.23V78.4403H300.73ZM119.72 157.63L118.529 156.719C115.229 161.032 111.978 165.426 108.798 169.89L110.02 170.76L111.242 171.631C114.401 167.195 117.631 162.829 120.911 158.542L119.72 157.63ZM110.02 170.76L110.92 169.56L110.88 169.53L109.98 170.73L109.08 171.93L109.12 171.96L110.02 170.76ZM109.98 170.73L111.381 170.195C111.036 169.292 111.004 168.096 111.31 166.71C111.612 165.337 112.222 163.889 113.015 162.568C113.809 161.245 114.749 160.111 115.666 159.337C116.628 158.524 117.354 158.281 117.754 158.299L117.82 156.8L117.886 155.302C116.361 155.234 114.902 156.055 113.73 157.045C112.513 158.073 111.37 159.479 110.442 161.025C109.514 162.573 108.764 164.322 108.38 166.064C107.999 167.792 107.954 169.629 108.579 171.265L109.98 170.73ZM117.82 156.8L117.754 158.299C118.094 158.314 118.455 158.478 118.638 158.669L119.72 157.63L120.802 156.592C120.025 155.782 118.906 155.347 117.886 155.302L117.82 156.8ZM200.36 643.16L199.715 641.806C198.305 642.478 197.273 642.194 196.558 641.464C195.745 640.633 195.099 638.96 195.266 636.461L193.77 636.36L192.273 636.26C192.071 639.27 192.8 641.913 194.414 643.562C196.127 645.312 198.575 645.673 201.005 644.514L200.36 643.16ZM193.77 636.36L195.266 636.461C195.494 633.079 197.153 629.288 199.677 627.156L198.71 626.01L197.742 624.864C194.486 627.613 192.545 632.222 192.273 636.259L193.77 636.36ZM198.71 626.01L199.678 627.156C200.879 626.141 201.848 625.834 202.548 625.829C203.227 625.824 203.849 626.1 204.399 626.661L205.47 625.61L206.54 624.56C205.511 623.51 204.138 622.817 202.525 622.829C200.932 622.841 199.31 623.539 197.742 624.864L198.71 626.01ZM205.47 625.61L204.394 626.655C204.602 626.87 204.802 627.156 204.983 627.539L206.34 626.9L207.697 626.262C207.397 625.624 207.018 625.051 206.546 624.565L205.47 625.61ZM206.34 626.9L205.713 625.537C203.826 626.405 202.028 628.165 200.67 630.351C199.297 632.559 198.3 635.317 198.113 638.307L199.61 638.4L201.107 638.494C201.26 636.044 202.082 633.761 203.218 631.935C204.366 630.086 205.763 628.816 206.966 628.263L206.34 626.9ZM199.61 638.4L198.113 638.305C197.969 640.574 198.361 642.439 199.031 643.817L200.38 643.16L201.729 642.504C201.319 641.661 200.991 640.327 201.107 638.495L199.61 638.4ZM200.38 643.16V641.66H200.36V643.16V644.66H200.38V643.16ZM200.36 643.16L201.709 642.504C201.299 641.662 200.971 640.317 201.087 638.496L199.59 638.4L198.093 638.305C197.949 640.563 198.341 642.439 199.011 643.817L200.36 643.16ZM199.59 638.4L201.087 638.496C201.245 636.04 202.07 633.754 203.204 631.926C204.353 630.077 205.745 628.811 206.936 628.263L206.31 626.9L205.684 625.537C203.805 626.4 202.012 628.159 200.655 630.344C199.285 632.552 198.285 635.311 198.093 638.304L199.59 638.4ZM206.31 626.9L204.953 627.54C205.635 628.987 205.812 631.391 205.187 634C204.571 636.574 203.227 639.113 201.163 640.854L202.13 642L203.097 643.147C205.753 640.907 207.374 637.751 208.105 634.698C208.828 631.679 208.734 628.524 207.666 626.26L206.31 626.9ZM202.13 642L201.16 640.856C200.656 641.283 200.168 641.595 199.727 641.8L200.36 643.16L200.993 644.52C201.712 644.186 202.423 643.718 203.1 643.145L202.13 642ZM302.81 279.93L302.023 281.207C313.862 288.505 320.638 306.453 316.797 331.775L318.28 332L319.763 332.225C323.682 306.387 316.937 286.876 303.597 278.653L302.81 279.93ZM318.28 332L316.797 331.776C314.411 347.519 307.84 364.448 298.416 378.923C288.986 393.41 276.783 405.313 263.215 411.173L263.81 412.55L264.405 413.927C278.687 407.758 291.299 395.355 300.931 380.56C310.57 365.752 317.309 348.422 319.763 332.225L318.28 332ZM263.81 412.55L263.216 411.173C254.207 415.06 246.175 415.496 239.53 413.249L239.05 414.67L238.569 416.091C246.065 418.625 254.873 418.04 264.404 413.928L263.81 412.55ZM239.05 414.67L239.524 413.247C239.162 413.127 238.804 412.995 238.441 412.857L237.91 414.26L237.379 415.663C237.756 415.806 238.158 415.954 238.576 416.093L239.05 414.67ZM237.91 414.26L238.458 412.864C228.228 408.849 221.004 397.976 219.201 381.873L217.71 382.04L216.219 382.207C218.096 398.964 225.732 411.092 237.362 415.657L237.91 414.26ZM217.71 382.04L219.2 381.873C215.032 344.715 231.894 307.445 263.83 286.23L263 284.98L262.17 283.731C229.286 305.576 211.927 343.946 216.219 382.208L217.71 382.04ZM263 284.98L263.839 286.224C264.257 285.942 264.677 285.668 265.108 285.387L264.29 284.13L263.471 282.873C263.043 283.152 262.603 283.439 262.161 283.737L263 284.98ZM264.29 284.13L265.103 285.391C279.715 275.96 292.712 275.458 302.032 281.207L302.82 279.93L303.607 278.654C292.988 272.103 278.705 273.041 263.476 282.87L264.29 284.13ZM302.82 279.93V278.43H302.81V279.93V281.43H302.82V279.93ZM240.62 415.46L241.225 414.088L238.505 412.888L237.9 414.26L237.294 415.633L240.014 416.833L240.62 415.46ZM237.9 414.26L237.369 415.663C237.746 415.806 238.143 415.952 238.544 416.09L239.03 414.67L239.515 413.251C239.157 413.128 238.793 412.995 238.431 412.857L237.9 414.26ZM239.03 414.67L238.31 415.986C238.888 416.302 239.457 416.57 239.981 416.812L240.61 415.45L241.238 414.088C240.723 413.85 240.232 413.618 239.75 413.354L239.03 414.67ZM240.61 415.45L239.548 416.509L239.558 416.519L240.62 415.46L241.682 414.401L241.672 414.391L240.61 415.45ZM240.62 415.46L241.239 414.094C240.737 413.867 240.238 413.622 239.751 413.36L239.04 414.68L238.329 416.001C238.882 416.299 239.443 416.574 240.001 416.827L240.62 415.46ZM239.04 414.68L238.559 416.101C246.045 418.635 254.863 418.05 264.394 413.938L263.8 412.56L263.206 411.183C254.197 415.07 246.155 415.505 239.521 413.26L239.04 414.68ZM263.8 412.56L264.395 413.937C278.677 407.768 291.289 395.365 300.921 380.57C310.56 365.762 317.299 348.432 319.753 332.235L318.27 332.01L316.787 331.786C314.401 347.529 307.83 364.458 298.406 378.933C288.976 393.42 276.773 405.323 263.205 411.183L263.8 412.56ZM318.27 332.01L319.753 332.235C323.672 306.398 316.938 286.886 303.586 278.663L302.8 279.94L302.013 281.218C313.862 288.515 320.628 306.463 316.787 331.785L318.27 332.01ZM302.8 279.94L302.268 281.343C302.795 281.543 303.309 281.772 303.809 282.022L304.48 280.68L305.151 279.339C304.571 279.049 303.965 278.778 303.332 278.538L302.8 279.94ZM304.48 280.68L303.809 282.022L304.889 282.562L305.56 281.22L306.231 279.879L305.151 279.339L304.48 280.68ZM305.56 281.22L304.841 282.537C311.132 285.969 315.614 292.003 318.365 299.337L319.77 298.81L321.174 298.283C318.246 290.477 313.368 283.771 306.278 279.904L305.56 281.22ZM319.77 298.81L318.365 299.337C323.306 312.519 322.348 328.858 318.913 342.914L320.37 343.27L321.827 343.626C325.332 329.283 326.414 312.262 321.174 298.284L319.77 298.81ZM320.37 343.27L318.912 342.916C315.081 358.666 307.779 373.932 298.348 386.563L299.55 387.46L300.752 388.358C310.42 375.409 317.899 359.775 321.827 343.625L320.37 343.27ZM299.55 387.46L298.348 386.562C289.725 398.096 277.813 409.268 264.474 414.048L264.98 415.46L265.486 416.872C279.607 411.812 291.954 400.124 300.751 388.358L299.55 387.46ZM264.98 415.46L264.472 414.049C256.76 416.823 248.818 417.32 241.825 414.359L241.24 415.74L240.655 417.122C248.542 420.461 257.299 419.817 265.488 416.872L264.98 415.46ZM241.24 415.74L241.811 414.353L241.641 414.283L241.07 415.67L240.499 417.057L240.669 417.127L241.24 415.74ZM241.07 415.67L241.682 414.301L241.212 414.091L240.6 415.46L239.988 416.83L240.458 417.04L241.07 415.67ZM240.6 415.46V416.96H240.62V415.46V413.96H240.6V415.46ZM240.62 415.46L240.008 416.83L240.478 417.04L241.09 415.67L241.702 414.301L241.232 414.091L240.62 415.46ZM241.09 415.67L241.691 414.296C241.478 414.203 241.405 414.176 241.291 414.119L240.62 415.46L239.949 416.802C240.155 416.905 240.382 416.998 240.489 417.045L241.09 415.67ZM302.81 279.93L303.597 278.654C292.978 272.103 278.705 273.041 263.467 282.87L264.28 284.13L265.093 285.391C279.715 275.96 292.702 275.458 302.022 281.207L302.81 279.93ZM264.28 284.13L263.461 282.873C263.033 283.152 262.593 283.439 262.151 283.737L262.99 284.98L263.829 286.224C264.247 285.942 264.667 285.668 265.098 285.387L264.28 284.13ZM262.99 284.98L262.16 283.731C229.275 305.566 211.928 343.946 216.209 382.207L217.7 382.04L219.191 381.874C215.032 344.714 231.884 307.435 263.82 286.23L262.99 284.98ZM217.7 382.04L216.209 382.208C218.096 398.965 225.732 411.092 237.351 415.656L237.9 414.26L238.448 412.864C228.228 408.849 221.004 397.976 219.19 381.873L217.7 382.04ZM240.62 415.46L240.019 416.835C240.089 416.865 240.159 416.897 240.237 416.932C240.314 416.967 240.399 417.005 240.489 417.045L241.09 415.67L241.691 414.296C241.62 414.265 241.551 414.234 241.472 414.198C241.396 414.164 241.31 414.125 241.221 414.086L240.62 415.46ZM241.09 415.67L240.519 417.057L240.689 417.127L241.26 415.74L241.831 414.353L241.661 414.283L241.09 415.67ZM241.26 415.74L240.677 417.122C248.562 420.45 257.318 419.818 265.508 416.872L265 415.46L264.492 414.049C256.782 416.823 248.838 417.311 241.843 414.358L241.26 415.74ZM265 415.46L265.506 416.872C279.626 411.812 291.984 400.125 300.772 388.358L299.57 387.46L298.368 386.563C289.755 398.096 277.833 409.268 264.494 414.048L265 415.46ZM299.57 387.46L300.772 388.358C310.44 375.409 317.919 359.775 321.847 343.625L320.39 343.27L318.932 342.916C315.101 358.666 307.799 373.932 298.368 386.563L299.57 387.46ZM320.39 343.27L321.847 343.626C325.352 329.283 326.434 312.262 321.194 298.284L319.79 298.81L318.385 299.337C323.326 312.519 322.368 328.858 318.933 342.914L320.39 343.27ZM319.79 298.81L321.194 298.283C318.266 290.477 313.388 283.771 306.298 279.904L305.58 281.22L304.861 282.537C311.152 285.969 315.634 292.003 318.385 299.337L319.79 298.81ZM305.58 281.22L306.251 279.879L305.171 279.339L304.5 280.68L303.829 282.022L304.909 282.562L305.58 281.22ZM304.5 280.68L305.171 279.339C304.585 279.046 303.972 278.777 303.36 278.541L302.82 279.94L302.28 281.34C302.808 281.544 303.334 281.775 303.829 282.022L304.5 280.68ZM302.82 279.94L303.882 278.881L303.872 278.871L302.81 279.93L301.748 280.989L301.758 280.999L302.82 279.94ZM185.75 150.77L186.782 151.859C206.44 133.226 230.484 115.775 255.925 105.123C281.366 94.4706 308.091 90.6596 333.232 99.1023L333.71 97.6803L334.187 96.2584C308.139 87.5111 280.633 91.5251 254.767 102.355C228.901 113.186 204.559 130.875 184.718 149.682L185.75 150.77ZM333.71 97.6803L333.233 99.1025C353.477 105.893 369.356 119.835 380.824 138.399L382.1 137.61L383.376 136.822C371.604 117.765 355.202 103.308 334.187 96.2582L333.71 97.6803ZM382.1 137.61L380.824 138.399C396.926 164.448 402.942 197.663 403.37 228.811L404.87 228.79L406.37 228.77C405.938 197.338 399.874 163.512 383.376 136.822L382.1 137.61ZM404.87 228.79L403.371 228.726C402.485 249.249 399.559 269.724 395.393 289.075L396.86 289.39L398.326 289.706C402.521 270.217 405.474 249.572 406.368 228.855L404.87 228.79ZM263.45 526.15L262.519 524.974C246.225 537.876 227.955 549.238 208.621 556.68L209.16 558.08L209.699 559.48C229.384 551.903 247.915 540.364 264.381 527.326L263.45 526.15ZM209.16 558.08L208.621 556.68C181.689 567.048 157.49 568.187 137.004 561.792C116.524 555.398 99.6068 541.431 87.3033 521.313C62.6658 481.027 56.5722 416.1 77.7865 338.727L76.3399 338.33L74.8933 337.934C53.5575 415.75 59.5139 481.623 84.7439 522.878C97.3741 543.53 114.845 558.017 136.11 564.655C157.368 571.291 182.271 570.038 209.699 559.48L209.16 558.08ZM76.3399 338.33L77.7865 338.727C97.6497 266.271 138.115 197.966 186.772 151.859L185.74 150.77L184.708 149.682C135.624 196.194 94.8901 264.99 74.8932 337.934L76.3399 338.33ZM185.74 150.77V152.27H185.75V150.77V149.27H185.74V150.77ZM382.4 603.4L382.946 602.003L322.266 578.293L321.72 579.69L321.174 581.087L381.854 604.797L382.4 603.4ZM321.72 579.69L322.776 580.755C335.037 568.594 346.874 555.433 358.166 541.463L357 540.52L355.833 539.577C344.606 553.467 332.842 566.546 320.664 578.625L321.72 579.69ZM357 540.52L357.807 541.785C395.578 517.664 427.845 477.393 449.375 432.095C470.904 386.798 481.77 336.321 476.57 291.707L475.08 291.88L473.59 292.054C478.71 335.98 468.015 385.888 446.665 430.808C425.315 475.728 393.381 515.507 356.192 539.256L357 540.52ZM475.08 291.88L476.548 292.186C480.179 274.715 482.868 257.261 484.503 239.982L483.01 239.84L481.517 239.699C479.892 256.86 477.221 274.205 473.611 291.575L475.08 291.88ZM483.01 239.84L482.274 241.147L538.194 272.647L538.93 271.34L539.666 270.033L483.746 238.533L483.01 239.84ZM538.93 271.34L538.186 272.643L539.026 273.123L539.77 271.82L540.514 270.518L539.674 270.038L538.93 271.34ZM539.77 271.82L539.034 273.127C558.034 283.823 571.336 301.87 579.265 323.105L580.67 322.58L582.075 322.056C573.964 300.33 560.266 281.637 540.506 270.513L539.77 271.82ZM580.67 322.58L579.265 323.106C591.698 356.32 590.598 395.5 582.678 430.126L584.14 430.46L585.602 430.795C593.602 395.821 594.782 356 582.075 322.054L580.67 322.58ZM584.14 430.46L582.678 430.126C573.956 468.302 556.292 505.522 532.216 536.459L533.4 537.38L534.584 538.302C558.928 507.019 576.783 469.398 585.602 430.794L584.14 430.46ZM533.4 537.38L532.216 536.459C510.395 564.499 480.748 590.135 447.178 601.53L447.66 602.95L448.142 604.371C482.452 592.725 512.544 566.622 534.584 538.302L533.4 537.38ZM447.66 602.95L447.178 601.53C425.655 608.836 403.24 609.935 382.956 602.003L382.41 603.4L381.864 604.797C402.959 613.046 426.124 611.845 448.142 604.371L447.66 602.95ZM382.41 603.4V601.9H382.4V603.4V604.9H382.41V603.4ZM356.4 92.4503L355.597 93.7171C356.01 93.979 356.401 94.2276 356.781 94.4836L357.62 93.2404L358.459 91.9971C358.038 91.7131 357.61 91.4416 357.203 91.1836L356.4 92.4503ZM356.99 92.8403L357.795 91.5748C357.777 91.5631 357.558 91.4178 357.452 91.354L356.68 92.6403L355.908 93.9265C356.002 93.9828 355.983 93.9776 356.185 94.1058L356.99 92.8403ZM370.82 17.2103L369.879 18.3788C370.088 18.5465 370.307 18.8077 370.488 19.2174L371.86 18.6103L373.231 18.0032C372.873 17.1929 372.372 16.5341 371.76 16.0418L370.82 17.2103ZM371.86 18.6103L370.501 19.2446C370.634 19.5309 370.729 19.8691 370.783 20.2704L372.27 20.0703L373.756 19.8702C373.67 19.2315 373.506 18.5897 373.219 17.976L371.86 18.6103ZM372.27 20.0703L371.783 18.6516C368.996 19.6083 366.57 22.0688 364.951 24.7835C363.332 27.4995 362.329 30.7932 362.745 33.6564L364.23 33.4403L365.714 33.2243C365.431 31.2775 366.117 28.6862 367.528 26.3197C368.94 23.9518 370.883 22.1323 372.757 21.489L372.27 20.0703ZM364.23 33.4403L363.729 32.0263C362.737 32.3774 362.045 32.258 361.622 32.0041L360.85 33.2903L360.078 34.5765C361.455 35.4026 363.122 35.4233 364.73 34.8544L364.23 33.4403ZM360.85 33.2903L361.639 32.0145C361.009 31.6252 360.345 30.6075 360.581 28.4213L359.09 28.2603L357.599 28.0992C357.295 30.9131 358.07 33.3354 360.061 34.5661L360.85 33.2903ZM359.09 28.2603L360.581 28.4233C360.951 25.0422 362.822 21.9098 364.987 19.9599C366.069 18.986 367.144 18.3792 368.042 18.1432C368.922 17.912 369.496 18.0582 369.876 18.3659L370.82 17.2003L371.764 16.0347C370.434 14.9574 368.79 14.8448 367.28 15.2417C365.787 15.6339 364.3 16.5421 362.98 17.7307C360.343 20.1057 358.059 23.8884 357.599 28.0972L359.09 28.2603ZM370.82 17.2003H369.32V17.2103H370.82H372.32V17.2003H370.82ZM368.08 30.7803L366.988 29.7518C365.816 30.9961 364.684 31.7077 363.742 32.032L364.23 33.4503L364.718 34.8686C366.216 34.3529 367.744 33.3246 369.172 31.8089L368.08 30.7803ZM364.23 33.4503L365.714 33.2347C365.431 31.282 366.118 28.6876 367.526 26.3197C368.936 23.9498 370.875 22.1309 372.739 21.4883L372.25 20.0703L371.761 18.6522C368.984 19.6097 366.563 22.0708 364.948 24.7859C363.332 27.503 362.329 30.7986 362.745 33.6659L364.23 33.4503ZM372.25 20.0703L370.765 20.2834C371.014 22.0196 370.39 24.3288 369.542 26.0611L370.89 26.7203L372.237 27.3795C373.21 25.3918 374.105 22.4409 373.735 19.8572L372.25 20.0703ZM370.89 26.7203V28.2203C370.651 28.2203 370.366 28.1622 370.094 27.991C369.824 27.8217 369.656 27.5978 369.557 27.4043C369.384 27.0664 369.392 26.7618 369.394 26.6798C369.401 26.4741 369.451 26.3213 369.455 26.3079C369.478 26.2315 369.5 26.1873 369.491 26.2082C369.481 26.2284 369.451 26.2914 369.391 26.402C369.275 26.6148 369.09 26.9326 368.851 27.308C368.366 28.0665 367.702 28.9917 366.994 29.7358L368.08 30.7703L369.166 31.8048C370.057 30.8689 370.838 29.7691 371.379 28.9227C371.652 28.4955 371.874 28.1158 372.028 27.8318C372.103 27.6939 372.172 27.5586 372.225 27.4427C372.246 27.3955 372.289 27.2987 372.323 27.1868C372.333 27.1556 372.386 26.9893 372.393 26.7746C372.395 26.688 372.402 26.38 372.228 26.0397C372.129 25.8452 371.96 25.6203 371.689 25.4505C371.416 25.2787 371.13 25.2203 370.89 25.2203V26.7203ZM368.08 30.7703H366.58V30.7803H368.08H369.58V30.7703H368.08ZM357.01 540.52L358.176 541.464C414.583 471.762 458.009 381.674 476.559 292.185L475.09 291.88L473.621 291.576C455.171 380.587 411.957 470.239 355.844 539.577L357.01 540.52ZM475.09 291.88L473.6 292.054C478.72 335.975 468.028 385.883 446.679 430.804C425.33 475.725 393.396 515.507 356.203 539.256L357.01 540.52L357.817 541.785C395.593 517.664 427.86 477.391 449.388 432.092C470.917 386.793 481.78 336.316 476.58 291.707L475.09 291.88ZM357.01 540.52L355.844 539.577C344.606 553.467 332.852 566.546 320.674 578.625L321.73 579.69L322.786 580.755C335.048 568.594 346.874 555.433 358.176 541.464L357.01 540.52ZM321.73 579.69L320.673 578.626C284.726 614.304 245.161 641.346 204.447 655.493L204.94 656.91L205.432 658.327C246.679 643.995 286.614 616.657 322.786 580.755L321.73 579.69ZM204.94 656.91L204.448 655.493C171.824 666.828 137.17 669.89 105.305 658.488L104.8 659.9L104.294 661.313C136.989 673.011 172.376 669.812 205.432 658.327L204.94 656.91ZM104.8 659.9L104.368 661.337C133.435 670.067 166.135 668.007 199.575 656.316L199.08 654.9L198.585 653.484C165.605 665.014 133.565 666.974 105.231 658.464L104.8 659.9ZM199.08 654.9L199.575 656.316C251.582 638.132 298.533 599.825 335.013 559.395L333.9 558.39L332.786 557.385C296.486 597.616 249.937 635.529 198.585 653.484L199.08 654.9ZM333.9 558.39L335.014 559.395C407.691 478.826 460.571 366.763 476.274 259.698L474.79 259.48L473.306 259.263C457.689 365.738 405.069 477.254 332.786 557.386L333.9 558.39ZM474.79 259.48L476.274 259.698C486.25 191.645 482.868 108.45 441.668 52.4613L440.46 53.3503L439.252 54.2393C479.732 109.25 483.249 191.435 473.306 259.263L474.79 259.48ZM440.46 53.3503L441.668 52.4608C432.214 39.6232 421.302 29.0299 409.109 20.8067L408.27 22.0503L407.431 23.2939C419.318 31.3107 429.986 41.6574 439.252 54.2398L440.46 53.3503ZM408.27 22.0503L407.533 23.3568C407.906 23.5675 408.274 23.7847 408.629 24.0086L409.43 22.7403L410.231 21.4721C409.825 21.216 409.413 20.9732 409.007 20.7439L408.27 22.0503ZM409.43 22.7403L408.626 24.0066L409.886 24.8066L410.69 23.5403L411.494 22.274L410.234 21.474L409.43 22.7403ZM410.69 23.5403L409.886 24.807C461.799 57.7362 481.145 125.574 483.211 188.19L484.71 188.14L486.209 188.091C484.134 125.187 464.701 56.0244 411.493 22.2736L410.69 23.5403ZM484.71 188.14L483.211 188.19C483.768 205.062 483.181 222.288 481.527 239.698L483.02 239.84L484.513 239.982C486.179 222.453 486.771 205.099 486.209 188.091L484.71 188.14ZM483.02 239.84L481.527 239.699C479.902 256.86 477.231 274.205 473.621 291.575L475.09 291.88L476.558 292.186C480.189 274.715 482.878 257.261 484.513 239.982L483.02 239.84ZM475.09 291.88L473.621 291.576C455.171 380.577 411.957 470.239 355.844 539.577L357.01 540.52L358.176 541.464C414.583 471.762 458.009 381.664 476.559 292.185L475.09 291.88ZM443.62 321.64L444.239 320.274C443.45 319.916 442.842 319.175 442.502 317.998C442.159 316.806 442.129 315.262 442.469 313.581C443.153 310.196 445.239 306.681 448.363 304.868L447.61 303.57L446.857 302.273C442.831 304.61 440.342 308.96 439.528 312.987C439.119 315.012 439.11 317.062 439.62 318.829C440.133 320.61 441.209 322.194 443 323.006L443.62 321.64ZM447.61 303.57L448.363 304.867C450.044 303.891 451.491 303.878 452.462 304.388L453.16 303.06L453.858 301.733C451.709 300.603 449.136 300.949 446.856 302.273L447.61 303.57ZM453.16 303.06L452.455 304.384C453.037 304.694 453.581 305.251 453.951 306.157L455.34 305.59L456.729 305.023C456.119 303.53 455.123 302.406 453.865 301.736L453.16 303.06ZM455.34 305.59L455.028 304.123C451.431 304.887 448.404 307.979 446.611 311.402C444.818 314.826 443.997 319.083 445.426 322.499L446.81 321.92L448.194 321.341C447.243 319.068 447.697 315.795 449.269 312.794C450.841 309.791 453.269 307.564 455.651 307.058L455.34 305.59ZM446.81 321.92L446.426 320.47C446.219 320.525 445.995 320.554 445.754 320.561L445.8 322.06L445.845 323.56C446.264 323.547 446.721 323.495 447.194 323.37L446.81 321.92ZM445.8 322.06L445.764 320.561C445.14 320.576 444.639 320.463 444.237 320.278L443.61 321.64L442.983 323.003C443.84 323.398 444.8 323.585 445.836 323.56L445.8 322.06ZM443.61 321.64V323.14H443.62V321.64V320.14H443.61V321.64ZM446.81 321.92L448.194 321.341C447.243 319.069 447.699 315.796 449.272 312.794C450.846 309.791 453.274 307.563 455.652 307.057L455.34 305.59L455.028 304.123C451.436 304.887 448.409 307.979 446.615 311.401C444.821 314.825 443.997 319.082 445.426 322.499L446.81 321.92ZM455.34 305.59L453.959 306.176C454.142 306.609 454.285 307.159 454.372 307.834L455.86 307.64L457.347 307.447C457.235 306.581 457.037 305.752 456.721 305.005L455.34 305.59ZM455.86 307.64L454.372 307.828C454.69 310.351 453.79 313.323 452.165 315.831C450.521 318.367 448.364 320.086 446.505 320.472L446.81 321.94L447.115 323.409C450.076 322.795 452.818 320.339 454.682 317.462C456.565 314.557 457.78 310.879 457.348 307.453L455.86 307.64ZM446.81 321.94H448.31V321.92H446.81H445.31V321.94H446.81Z" fill="#0D2133"/>
</svg>
