<svg width="149" height="78" viewBox="0 0 149 78" fill="none" xmlns="http://www.w3.org/2000/svg">
<g opacity="0.45">
<path d="M101.279 77.063V70.2118L101.143 70.2735C99.6018 71.0196 97.9245 71.4451 96.204 71.5253C94.4243 71.6609 92.6566 71.1411 91.2336 70.0638C90.2189 69.2806 89.4627 68.2107 89.063 66.9928C88.631 65.6622 88.5819 64.2369 88.9211 62.8796C89.2418 61.4921 90.0188 60.2526 91.1226 59.3708C92.1093 58.5445 93.3118 58.0265 94.5883 57.8785C96.8421 57.6261 99.12 58.0512 101.131 59.0995L101.279 59.1796V52.2915L100.965 52.2051C98.9519 51.5628 96.8403 51.2871 94.7301 51.3911C92.8079 51.4393 90.9146 51.8712 89.1616 52.6615C87.3918 53.4755 85.8316 54.678 84.6045 56.1826C82.7321 58.5478 81.693 61.4649 81.6484 64.4812C81.6038 67.4974 82.5562 70.444 84.3578 72.8635C86.177 75.1945 88.73 76.841 91.6036 77.5255C94.6315 78.2655 97.8073 78.1545 100.773 77.2048L101.279 77.063ZM33.4766 77.063V70.2118L33.341 70.2735C31.7993 71.0196 30.122 71.4451 28.4015 71.5253C26.6217 71.6627 24.8533 71.1427 23.4311 70.0638C22.4164 69.2818 21.6619 68.2113 21.2666 66.9928C20.83 65.6632 20.7787 64.2372 21.1186 62.8796C21.4393 61.4921 22.2101 60.2526 23.3201 59.3708C24.3068 58.5445 25.5093 58.0265 26.7858 57.8785C29.0396 57.6261 31.3175 58.0512 33.3286 59.0995L33.4766 59.1796V52.2915L33.1621 52.2051C31.1494 51.5628 29.0378 51.2871 26.9276 51.3911C25.0054 51.44 23.1123 51.8719 21.3591 52.6615C19.5906 53.4738 18.0301 54.6779 16.7958 56.1826C14.9255 58.5484 13.8871 61.4647 13.8414 64.4802C13.7957 67.4956 14.7452 70.4421 16.543 72.8635C18.3603 75.1964 20.9181 76.8407 23.795 77.5255C26.8228 78.2655 29.9925 78.1545 32.9648 77.2048L33.4766 77.063ZM57.6746 71.3773L57.65 77.2788L58.0816 77.3528C59.4383 77.6056 60.8011 77.7783 62.1763 77.877C63.3788 77.9941 64.5875 78.0126 65.7961 77.951C66.9493 77.8646 68.0901 77.6488 69.194 77.3096C70.489 76.9396 71.6915 76.3045 72.7151 75.4288C73.6392 74.6369 74.346 73.6224 74.7686 72.4811C75.5039 70.5734 75.4884 68.4579 74.7254 66.5611C74.3281 65.5742 73.6976 64.6982 72.8878 64.0081C72.1032 63.3066 71.1843 62.7716 70.1868 62.4356L65.7345 60.783C65.2028 60.556 64.7712 60.1442 64.5196 59.6236C64.4224 59.4102 64.3763 59.177 64.3849 58.9426C64.3934 58.7082 64.4565 58.479 64.569 58.2731C64.7977 57.8985 65.1267 57.5952 65.5186 57.3975C66.0175 57.1573 66.5533 57.003 67.1035 56.9411C68.047 56.8055 69.0028 56.8116 69.9401 56.972C71.0501 57.0953 72.1478 57.2865 73.227 57.564L73.4613 57.6133V52.1681L73.0358 52.0756C71.9322 51.8115 70.8141 51.6118 69.6873 51.4775C68.2262 51.2864 66.7469 51.2801 65.2843 51.459C63.4343 51.6255 61.6768 52.3408 60.2215 53.494C59.2348 54.271 58.4886 55.3008 58.0569 56.4786C57.4156 58.267 57.4095 60.228 58.0569 62.0225C58.3899 62.9166 58.9203 63.7121 59.611 64.372C60.2091 64.9455 60.8875 65.4388 61.6275 65.8273C62.5956 66.3453 63.6255 66.7461 64.6923 67.0298C65.0438 67.1346 65.3953 67.2456 65.7406 67.3628L66.2648 67.554L66.4128 67.6156C66.9308 67.8006 67.4118 68.0966 67.8064 68.479C68.084 68.738 68.2998 69.0586 68.4293 69.4101C68.5146 69.7353 68.5167 70.0767 68.4355 70.403C68.2688 70.9291 67.9008 71.3681 67.4118 71.624C66.8805 71.8953 66.3071 72.0746 65.716 72.1543C64.8452 72.2899 63.9626 72.3333 63.0828 72.2838C61.9305 72.1936 60.7839 72.0413 59.648 71.8275C59.0558 71.6992 58.4658 71.5615 57.8781 71.4143L57.6746 71.3773ZM42.4121 77.5131H48.8871V51.8166H42.4121V77.5131ZM117.411 59.4078C118.099 58.8475 118.89 58.4283 119.74 58.174C120.59 57.9198 121.482 57.8355 122.364 57.9259C123.247 58.0164 124.103 58.2799 124.884 58.7014C125.664 59.1228 126.354 59.6939 126.914 60.3821C127.475 61.0692 127.896 61.8603 128.151 62.7101C128.406 63.5599 128.491 64.4517 128.401 65.3344C128.311 66.2171 128.048 67.0734 127.627 67.8543C127.205 68.6351 126.634 69.3252 125.946 69.885L125.841 69.9713C124.436 71.0482 122.666 71.5312 120.909 71.3166C119.152 71.102 117.55 70.2069 116.446 68.8235C115.342 67.4402 114.825 65.679 115.005 63.9185C115.186 62.1579 116.049 60.5383 117.411 59.4078ZM108.007 64.6741C108.038 66.6798 108.516 68.6534 109.404 70.4519C110.292 72.2504 111.57 73.8287 113.143 75.0725C114.717 76.3162 116.548 77.1944 118.503 77.6432C120.458 78.0919 122.489 78.1002 124.447 77.6673C127.076 77.17 129.491 75.8852 131.372 73.9834C133.254 72.0816 134.512 69.6527 134.981 67.019C135.45 64.3853 135.107 61.6712 133.998 59.2369C132.889 56.8026 131.065 54.7632 128.77 53.3891C126.73 52.1276 124.392 51.428 121.994 51.361C119.596 51.294 117.222 51.8621 115.114 53.0078C113.007 54.1534 111.239 55.8358 109.991 57.8846C108.743 59.9333 108.058 62.2757 108.007 64.6741ZM142.164 31.1645C142.2 31.9898 142.554 32.7693 143.15 33.3405C143.747 33.9117 144.542 34.2305 145.368 34.2305C146.194 34.2305 146.988 33.9117 147.585 33.3405C148.182 32.7693 148.535 31.9898 148.571 31.1645V24.042C148.535 23.2166 148.182 22.4371 147.585 21.8659C146.988 21.2947 146.194 20.9759 145.368 20.9759C144.542 20.9759 143.747 21.2947 143.15 21.8659C142.554 22.4371 142.2 23.2166 142.164 24.042V31.1645ZM124.626 31.1645C124.688 31.9737 125.052 32.7298 125.648 33.2814C126.243 33.8331 127.024 34.1396 127.836 34.1396C128.647 34.1396 129.429 33.8331 130.024 33.2814C130.619 32.7298 130.984 31.9737 131.046 31.1645V15.199C130.995 14.3829 130.635 13.6168 130.039 13.0568C129.443 12.4968 128.657 12.1851 127.839 12.1851C127.021 12.1851 126.234 12.4968 125.639 13.0568C125.043 13.6168 124.683 14.3829 124.632 15.199L124.626 31.1645ZM106.829 37.5963C106.891 38.4039 107.255 39.1585 107.849 39.7091C108.443 40.2596 109.223 40.5655 110.033 40.5655C110.843 40.5655 111.623 40.2596 112.217 39.7091C112.811 39.1585 113.175 38.4039 113.236 37.5963V3.0568C113.2 2.23147 112.847 1.45197 112.25 0.880761C111.653 0.309554 110.859 -0.00927734 110.033 -0.00927734C109.207 -0.00927734 108.412 0.309554 107.816 0.880761C107.219 1.45197 106.865 2.23147 106.829 3.0568V37.5963ZM89.3281 31.1645C89.3788 31.9806 89.7386 32.7466 90.3344 33.3066C90.9302 33.8666 91.7171 34.1783 92.5348 34.1783C93.3524 34.1783 94.1393 33.8666 94.7351 33.3066C95.3309 32.7466 95.6908 31.9806 95.7414 31.1645V15.199C95.7052 14.3736 95.3519 13.5941 94.7551 13.0229C94.1582 12.4517 93.364 12.1329 92.5379 12.1329C91.7117 12.1329 90.9175 12.4517 90.3207 13.0229C89.7239 13.5941 89.3705 14.3736 89.3343 15.199V31.1645M71.451 31.1645C71.5291 31.9599 71.9003 32.6978 72.4925 33.2346C73.0846 33.7715 73.8553 34.0688 74.6545 34.0688C75.4538 34.0688 76.2245 33.7715 76.8166 33.2346C77.4087 32.6978 77.78 31.9599 77.8581 31.1645V24.042C77.8219 23.2166 77.4686 22.4371 76.8717 21.8659C76.2749 21.2947 75.4807 20.9759 74.6545 20.9759C73.8284 20.9759 73.0342 21.2947 72.4373 21.8659C71.8405 22.4371 71.4872 23.2166 71.451 24.042V31.1645ZM53.7526 31.1645C53.7888 31.9898 54.1422 32.7693 54.739 33.3405C55.3358 33.9117 56.1301 34.2305 56.9562 34.2305C57.7823 34.2305 58.5766 33.9117 59.1734 33.3405C59.7702 32.7693 60.1236 31.9898 60.1598 31.1645V15.199C60.1236 14.3736 59.7702 13.5941 59.1734 13.0229C58.5766 12.4517 57.7823 12.1329 56.9562 12.1329C56.1301 12.1329 55.3358 12.4517 54.739 13.0229C54.1422 13.5941 53.7888 14.3736 53.7526 15.199V31.1645ZM35.9495 37.5963C35.9857 38.4216 36.339 39.2011 36.9358 39.7723C37.5327 40.3436 38.3269 40.6624 39.153 40.6624C39.9792 40.6624 40.7734 40.3436 41.3702 39.7723C41.9671 39.2011 42.3204 38.4216 42.3566 37.5963V3.0568C42.3204 2.23147 41.9671 1.45197 41.3702 0.880761C40.7734 0.309554 39.9792 -0.00927734 39.153 -0.00927734C38.3269 -0.00927734 37.5327 0.309554 36.9358 0.880761C36.339 1.45197 35.9857 2.23147 35.9495 3.0568V37.5963ZM18.3066 31.1645C18.377 31.9664 18.7453 32.7128 19.3389 33.2566C19.9325 33.8003 20.7083 34.102 21.5133 34.102C22.3183 34.102 23.0941 33.8003 23.6877 33.2566C24.2812 32.7128 24.6496 31.9664 24.72 31.1645V15.199C24.6837 14.3736 24.3304 13.5941 23.7336 13.0229C23.1367 12.4517 22.3425 12.1329 21.5164 12.1329C20.6903 12.1329 19.896 12.4517 19.2992 13.0229C18.7024 13.5941 18.349 14.3736 18.3128 15.199V31.1645M0.571289 31.1645C0.632704 31.9721 0.996868 32.7267 1.59089 33.2772C2.18491 33.8278 2.96495 34.1337 3.77487 34.1337C4.5848 34.1337 5.36484 33.8278 5.95886 33.2772C6.55288 32.7267 6.91704 31.9721 6.97846 31.1645V24.042C6.94224 23.2166 6.58889 22.4371 5.99207 21.8659C5.39524 21.2947 4.60099 20.9759 3.77487 20.9759C2.94875 20.9759 2.1545 21.2947 1.55768 21.8659C0.960855 22.4371 0.607508 23.2166 0.571289 24.042L0.571289 31.1645Z" fill="black"/>
</g>
</svg>
