<svg width="74" height="74" viewBox="0 0 74 74" fill="none" xmlns="http://www.w3.org/2000/svg">
<g opacity="0.45" clip-path="url(#clip0_25_1525)">
<path d="M71.4183 0H66.8297V4.58862H71.4183V0ZM55.3627 32.1363V22.9428L55.3649 22.9459H64.5394V32.1225H73.7141V35.031C73.7141 38.3937 73.4283 42.3776 72.7706 45.506C72.4025 47.2549 71.8444 48.9926 71.1898 50.6613C70.5192 52.3686 69.7468 54.004 68.9057 55.4698C67.7981 57.4105 66.5124 59.244 65.0651 60.9464L64.9871 61.037L64.8585 61.1875C64.5045 61.6028 64.1546 62.0135 63.7698 62.4147C63.3204 62.8888 62.8584 63.3506 62.3841 63.7997C56.5116 69.4555 48.8603 72.988 40.86 73.799C39.8973 73.8976 37.9647 74 36.9999 74C36.0321 73.9969 34.1025 73.8979 33.1396 73.7993C25.1396 72.9884 17.4883 69.4527 11.6161 63.8C11.1417 63.3507 10.6795 62.8887 10.2301 62.4144C9.82622 61.9963 9.46238 61.5671 9.09454 61.1336L8.93482 60.9464C7.48718 59.2442 6.20141 57.4107 5.09422 55.4698C4.2534 54.0012 3.48072 52.3686 2.81009 50.6613C2.1555 48.992 1.59742 47.2549 1.22896 45.5066C0.571592 42.3742 0.285767 38.3937 0.285767 35.0316V0.574733H18.6371V32.1363C18.6371 32.1363 18.6371 34.5558 18.6677 35.3476L18.6745 35.5323C18.7136 36.556 18.7506 37.5609 18.8576 38.5589C19.1598 41.3925 19.7869 44.0821 21.0785 46.3561C21.4525 47.0128 21.8318 47.6511 22.2857 48.2554C25.0462 51.9366 29.2469 54.6999 34.4873 55.4698C35.1108 55.5604 36.3706 55.64 36.9999 55.64C37.6289 55.64 38.8885 55.5604 39.5126 55.4698C44.753 54.6999 48.9537 51.9363 51.7142 48.2554C52.1706 47.6511 52.547 47.0128 52.921 46.3561C54.213 44.0821 54.8401 41.3934 55.1423 38.5589C55.249 37.559 55.2872 36.5538 55.3254 35.5277L55.3322 35.3476C55.3627 34.5558 55.3627 32.1363 55.3627 32.1363ZM57.6527 6.88385H64.5366V13.7655H73.7138V22.9428H64.5366V13.7655L57.6527 13.7683V6.88385Z" fill="black"/>
</g>
<defs>
<clipPath id="clip0_25_1525">
<rect width="74" height="74" fill="white"/>
</clipPath>
</defs>
</svg>
