<svg width="151" height="24" viewBox="0 0 151 24" fill="none" xmlns="http://www.w3.org/2000/svg">
<g opacity="0.45">
<path d="M124.568 1.25507L124.855 18.0888H124.711L119.841 1.25507H111.817V22.4582H117.118L116.832 5.05194H116.976L122.204 22.4582H129.869V1.25507H124.568ZM23.6368 1.25507L19.6255 22.6738H25.428L28.3649 3.18944H28.508L31.3737 22.6732H37.1043L33.1643 1.25507H23.6368ZM56.0149 1.25507L53.3649 17.5876H53.2212L50.5712 1.25507H41.8318L41.4018 22.6738H46.7743L46.918 3.40382H46.9893L50.5705 22.6732H56.0149L59.5968 3.40444H59.7405L59.883 22.6732H65.2555L64.7543 1.25507H56.0149ZM10.5999 16.5844C10.8143 17.0857 10.743 17.8026 10.6712 18.1607C10.528 18.8769 10.0268 19.5932 8.59367 19.5932C7.23304 19.5932 6.44492 18.8057 6.44492 17.6588V15.5819H0.714294V17.2294C0.714294 22.0288 4.51054 23.4613 8.52242 23.4613C12.3905 23.4613 15.6137 22.1001 16.1155 18.5901C16.4018 16.7276 16.1868 15.5101 16.1155 15.0801C15.1124 10.5676 6.94679 9.27819 6.37304 6.77069C6.30179 6.34069 6.30179 5.91132 6.37304 5.62445C6.51679 4.9082 7.01804 4.19195 8.30742 4.19195C9.59679 4.19195 10.3137 4.97944 10.3137 6.12632V7.4157H15.6855V5.91132C15.6855 1.25507 11.4593 0.538818 8.45054 0.538818C4.65429 0.538818 1.50242 1.82819 0.929294 5.26632C0.785544 6.19757 0.714294 7.05757 1.00054 8.13194C1.86054 12.5732 9.52617 13.8626 10.5999 16.5844ZM80.2993 16.5844C80.5137 17.0863 80.4418 17.7307 80.3705 18.1607C80.2268 18.8769 79.7255 19.5932 78.293 19.5932C76.9318 19.5932 76.1443 18.8057 76.1443 17.6588V15.5819H70.413V17.2294C70.413 21.9569 74.138 23.3901 78.1499 23.3901C82.018 23.3901 85.1699 22.1007 85.6712 18.5188C85.958 16.6563 85.743 15.5101 85.6712 15.0088C84.8118 10.5676 76.7168 9.20632 76.1443 6.77132C76.0724 6.34132 76.0724 5.91132 76.1443 5.62445C76.2874 4.9082 76.7887 4.19195 78.078 4.19195C79.2955 4.19195 80.0843 4.97944 80.0843 6.12632V7.4157H85.3843V5.91132C85.3843 1.25507 81.2299 0.538818 78.2218 0.538818C74.4249 0.538818 71.3443 1.75632 70.7718 5.26632C70.628 6.19757 70.628 7.05757 70.843 8.13194C71.703 12.5732 79.2243 13.7907 80.2993 16.5844ZM98.3505 19.4501C99.8549 19.4501 100.284 18.4469 100.427 17.8738C100.499 17.6594 100.499 17.3007 100.499 17.0863V1.25507H105.943V16.6563C105.943 17.0863 105.943 17.8738 105.872 18.0888C105.514 22.1007 102.362 23.3901 98.4218 23.3901C94.4824 23.3901 91.3305 22.1007 90.9718 18.0888C90.9718 17.8738 90.9005 17.0863 90.9005 16.6563V1.25507H96.3443V17.0863C96.3443 17.3726 96.3443 17.6588 96.4162 17.8738C96.4162 18.4469 96.8462 19.4501 98.3505 19.4501ZM143.049 19.2351C144.626 19.2351 145.127 18.2319 145.27 17.6588C145.342 17.4444 145.342 17.0857 145.342 16.8713V13.7907H143.121V10.6388H150.714V16.3701C150.714 16.7994 150.714 17.0857 150.642 17.8026C150.284 21.7419 146.917 23.1032 143.121 23.1032C139.324 23.1032 135.958 21.7419 135.6 17.8026C135.528 17.0857 135.528 16.7994 135.528 16.3694V7.34445C135.528 6.9857 135.6 6.26944 135.6 5.91132C136.101 1.89944 139.325 0.61007 143.121 0.61007C146.917 0.61007 150.213 1.89944 150.642 5.91132C150.714 6.55569 150.714 7.34382 150.714 7.34382V8.06007H145.342V6.84257C145.342 6.84257 145.342 6.3407 145.27 6.05445C145.199 5.5532 144.769 4.47882 143.121 4.47882C141.546 4.47882 141.115 5.48132 140.972 6.05445C140.901 6.3407 140.901 6.69944 140.901 7.05757V16.8713C140.901 17.1576 140.901 17.4438 140.972 17.6588C140.972 18.2319 141.546 19.2351 143.049 19.2351Z" fill="black"/>
</g>
</svg>
