<svg width="85" height="84" viewBox="0 0 85 84" fill="none" xmlns="http://www.w3.org/2000/svg">
<g opacity="0.45" clip-path="url(#clip0_25_1540)">
<path d="M42.2856 0C19.0911 0 0.285645 18.8055 0.285645 42C0.285645 65.1945 19.0911 84 42.2856 84C65.4801 84 84.2856 65.1945 84.2856 42C84.2716 18.809 65.4766 0.014 42.2856 0ZM42.2856 80.08C21.2541 80.08 4.20564 63.0315 4.20564 42C4.20564 20.9685 21.2541 3.92 42.2856 3.92C63.3171 3.92 80.3656 20.9685 80.3656 42C80.3446 63.021 63.3066 80.059 42.2856 80.08ZM59.6246 15.771H56.7511V30.149H27.9111V15.771H24.9466C20.6073 18.6339 17.046 22.5286 14.582 27.1063C12.1179 31.6839 10.8281 36.8013 10.8281 42C10.8281 47.1987 12.1179 52.3161 14.582 56.8937C17.046 61.4714 20.6073 65.3661 24.9466 68.229H27.9076V53.851H56.7476V68.229H59.6246C63.964 65.3661 67.5253 61.4714 69.9893 56.8937C72.4534 52.3161 73.7432 47.1987 73.7432 42C73.7432 36.8013 72.4534 31.6839 69.9893 27.1063C67.5253 22.5286 63.964 18.6339 59.6246 15.771ZM23.9001 62.566C20.995 59.985 18.6696 56.8177 17.0772 53.2729C15.4848 49.7281 14.6614 45.8861 14.6614 42C14.6614 38.1139 15.4848 34.2719 17.0772 30.7271C18.6696 27.1823 20.995 24.015 23.9001 21.434V62.566ZM56.7511 49.8435H27.9111V34.069H56.7511V49.8435ZM60.6711 62.4785V21.434C63.5511 24.0211 65.8542 27.1854 67.4309 30.7212C69.0075 34.2569 69.8223 38.0849 69.8223 41.9562C69.8223 45.8276 69.0075 49.6556 67.4309 53.1913C65.8542 56.7271 63.5511 59.8914 60.6711 62.4785Z" fill="black"/>
</g>
<defs>
<clipPath id="clip0_25_1540">
<rect width="84" height="84" fill="white" transform="translate(0.285645)"/>
</clipPath>
</defs>
</svg>
