<svg width="85" height="84" viewBox="0 0 85 84" fill="none" xmlns="http://www.w3.org/2000/svg">
<g opacity="0.45" clip-path="url(#clip0_25_1534)">
<path d="M80.7864 21.658C80.5968 21.2021 80.3396 20.7773 80.0234 20.398C79.1834 19.362 77.8044 18.347 76.0334 17.374L61.8514 9.60403L47.6589 1.81653C45.9019 0.850532 44.2779 0.227532 42.9129 0.0455318C42.6574 0.0144036 42.4002 -0.000792497 42.1429 3.18119e-05C40.6309 3.18119e-05 38.7339 0.672032 36.6269 1.82003L22.4379 9.59003L8.25237 17.36C6.48837 18.3365 5.10237 19.3515 4.26237 20.3945C4.10713 20.5833 3.96448 20.782 3.83537 20.9895C3.70921 21.2038 3.59697 21.4259 3.49937 21.6545C2.97437 22.8725 2.72937 24.5105 2.72937 26.4425V57.547C2.72937 59.857 3.07937 61.747 3.83537 63C4.59137 64.246 6.14537 65.471 8.25237 66.626L22.4414 74.396L36.6269 82.1765C38.3909 83.1425 40.0079 83.7725 41.3869 83.9475C41.8944 84.0175 42.4054 84.0175 42.9129 83.9475C44.2779 83.7725 45.8949 83.1495 47.6589 82.1765L76.0334 66.626C78.1334 65.471 79.6944 64.246 80.4504 63C80.5764 62.79 80.6884 62.5695 80.7864 62.342C81.3114 61.124 81.5564 59.479 81.5564 57.547V26.446C81.5564 24.514 81.3114 22.876 80.7864 21.658ZM25.4584 58.163C25.4584 58.863 24.6954 59.318 24.0724 58.9785L18.9974 56.1925C18.4122 55.8705 17.9242 55.3972 17.5844 54.8222C17.2445 54.2472 17.0653 53.5915 17.0654 52.9235V37.8875C17.0654 37.1875 17.8214 36.7325 18.4444 37.065L24.4924 40.3795C24.7862 40.54 25.0312 40.777 25.2012 41.0653C25.3713 41.3537 25.4602 41.6827 25.4584 42.0175V58.163ZM67.2274 52.9235C67.2274 54.2885 66.4819 55.5415 65.2884 56.1995L60.2134 58.9785C60.0714 59.0565 59.9115 59.096 59.7496 59.0933C59.5876 59.0905 59.4292 59.0456 59.29 58.9629C59.1507 58.8802 59.0354 58.7626 58.9555 58.6217C58.8756 58.4808 58.8339 58.3215 58.8344 58.1595V38.2375C58.8344 37.5375 58.0749 37.0825 57.4519 37.4255L48.2819 42.4445C47.0919 43.099 46.3499 44.352 46.3499 45.7135V65.4745C46.3502 65.8099 46.26 66.1391 46.0887 66.4274C45.9175 66.7157 45.6715 66.9524 45.3769 67.1125L43.9419 67.8965C42.8219 68.5125 41.4674 68.5125 40.3509 67.8965L38.9229 67.1125C38.6282 66.9524 38.3823 66.7157 38.211 66.4274C38.0397 66.1391 37.9495 65.8099 37.9499 65.4745V45.7135C37.9499 44.352 37.2079 43.099 36.0179 42.4445L17.0654 32.06V31.08C17.0654 29.722 17.8074 28.469 18.9974 27.811L21.0974 26.663C21.6457 26.3628 22.2607 26.2054 22.8859 26.2054C23.511 26.2054 24.1261 26.3628 24.6744 26.663L40.3544 35.245C41.4674 35.861 42.8184 35.861 43.9279 35.245L51.1729 31.276C51.3205 31.1962 51.4439 31.078 51.5298 30.9338C51.6158 30.7896 51.6612 30.6249 51.6612 30.457C51.6612 30.2892 51.6158 30.1245 51.5298 29.9803C51.4439 29.8361 51.3205 29.7179 51.1729 29.638L34.9049 20.727C34.7572 20.6472 34.6339 20.529 34.5479 20.3848C34.462 20.2406 34.4166 20.0759 34.4166 19.908C34.4166 19.7402 34.462 19.5755 34.5479 19.4313C34.6339 19.2871 34.7572 19.1689 34.9049 19.089L40.3509 16.107C41.4709 15.491 42.8254 15.491 43.9419 16.107L65.2919 27.797C66.4889 28.455 67.2309 29.7115 67.2274 31.073V52.9235Z" fill="black"/>
</g>
<defs>
<clipPath id="clip0_25_1534">
<rect width="84" height="84" fill="white" transform="translate(0.142883)"/>
</clipPath>
</defs>
</svg>
