<svg width="85" height="84" viewBox="0 0 85 84" fill="none" xmlns="http://www.w3.org/2000/svg">
<g opacity="0.45" clip-path="url(#clip0_25_1531)">
<path d="M0.428589 18.4256L7.50594 34.4878L14.5819 18.4256H0.428589ZM7.50594 45.0291C9.94964 45.0291 11.9355 43.0499 11.9355 40.617C11.9355 38.1723 9.94964 36.2007 7.50594 36.2007C5.05489 36.2007 3.07459 38.1723 3.07459 40.617C3.07459 43.0499 5.05489 45.0291 7.50594 45.0291ZM3.67799 56.7926C3.67799 60.1428 6.69499 65.5741 15.2777 65.5741C23.8628 65.5741 26.8816 61.4189 26.8816 56.7926V18.4256H19.2211L19.225 58.1254C19.225 60.294 17.462 62.1126 15.2836 62.1126C13.1028 62.1126 11.336 60.3469 11.336 58.1786L11.3304 50.0908H3.67799V56.7926ZM32.6877 64.8843V18.4256H47.9985C50.9528 18.4256 55.653 20.8511 55.653 25.9954V33.9093C55.653 36.2235 53.6237 40.3241 50.6088 40.3241C53.6237 40.3241 55.653 42.9218 55.653 44.8898V58.8156C55.653 61.1841 53.7409 64.8843 47.9985 64.8843H32.6877ZM44.5184 38.4278C47.3027 38.4278 47.9988 37.9588 47.9988 30.6763C47.9988 23.396 47.3023 22.8153 44.5184 22.8153H40.3366V38.4166L44.5184 38.4278ZM47.9988 51.7656C47.9988 44.4814 47.9988 42.3485 44.9762 42.3485H40.3366V61.0672L44.9759 61.0766C47.9985 61.0766 47.9988 59.0442 47.9988 51.7656ZM61.2253 64.8843H84.4286V50.0908H76.7685L76.7741 58.1783C76.7741 60.3469 75.0076 62.1126 72.8285 62.1126C70.6515 62.1126 68.883 60.3469 68.883 58.1786V18.4253H61.225L61.2253 64.8843Z" fill="black"/>
</g>
<defs>
<clipPath id="clip0_25_1531">
<rect width="84" height="84" fill="white" transform="translate(0.428589)"/>
</clipPath>
</defs>
</svg>
