<svg width="151" height="24" viewBox="0 0 151 24" fill="none" xmlns="http://www.w3.org/2000/svg">
<g opacity="0.45">
<path d="M20.5884 8.78281C20.8378 4.46156 17.5359 0.756563 13.2147 0.507812H0.857178V22.8828H7.63218V16.0078H11.7572C12.7947 16.0078 13.8384 15.8828 14.8572 15.6391C17.9634 14.9953 20.2947 12.3891 20.5884 9.23282V8.78281ZM13.8322 8.81407C13.76 9.32596 13.5089 9.79574 13.1233 10.1401C12.7377 10.4845 12.2427 10.6812 11.7259 10.6953C11.2197 10.7391 10.7884 10.7391 10.2884 10.7391H7.63218V5.88282H11.5822C12.1439 5.88031 12.6862 6.08797 13.1025 6.465C13.5189 6.84202 13.7791 7.36114 13.8322 7.92032C13.8646 8.21735 13.8646 8.51703 13.8322 8.81407ZM36.8203 17.8766C36.8203 16.1391 36.7578 14.6828 36.7578 12.9641C36.7521 12.0774 36.6324 11.1952 36.4016 10.3391C36.264 9.77044 36.0081 9.2372 35.6505 8.77413C35.293 8.31106 34.8419 7.92855 34.3266 7.65157C33.7125 7.3005 33.0455 7.05143 32.3516 6.91407C30.1646 6.41882 27.8994 6.37628 25.6953 6.78906C25.0703 6.88281 24.4641 7.05782 23.8828 7.30157C23.2023 7.5718 22.5924 7.99375 22.0996 8.53529C21.6068 9.07683 21.2441 9.72367 21.0391 10.4266C20.8688 10.9525 20.8176 11.5097 20.8891 12.0578C20.8975 12.1627 20.9273 12.2648 20.9766 12.3578L26.3516 12.4828C26.3384 12.1568 26.3916 11.8315 26.5078 11.5266C26.5889 11.2921 26.7221 11.0792 26.8975 10.9038C27.0729 10.7284 27.2859 10.5951 27.5203 10.5141C28.2097 10.2573 28.9684 10.2573 29.6578 10.5141C29.8897 10.5824 30.1007 10.7082 30.2711 10.8797C30.4415 11.0512 30.5659 11.263 30.6328 11.4953C30.6751 11.6313 30.6858 11.7752 30.6641 11.916C30.6424 12.0568 30.589 12.1908 30.5078 12.3078C30.3518 12.5281 30.1345 12.6977 29.8828 12.7953L29.4203 12.9453C28.7141 13.1328 27.9953 13.2891 27.2766 13.4141C26.6995 13.5063 26.1243 13.6105 25.5516 13.7266C24.7803 13.8801 24.0186 14.0784 23.2703 14.3203C22.5839 14.5412 21.9545 14.9104 21.4266 15.4016C20.7119 16.0348 20.2557 16.9093 20.1453 17.8578C20.0513 18.4798 20.0768 19.1141 20.2203 19.7266C20.3877 20.5278 20.7735 21.2671 21.3349 21.8628C21.8963 22.4584 22.6116 22.8871 23.4016 23.1016C25.1328 23.6266 26.9891 23.5266 28.6578 22.8328C29.4966 22.511 30.2374 21.9769 30.8078 21.2828C30.9203 21.6516 31.0453 22.0141 31.1641 22.3828C31.2391 22.5828 31.3516 22.7641 31.4828 22.9266H37.4078C37.1532 22.541 37.0064 22.0943 36.9828 21.6328C36.8966 20.3828 36.8422 19.1303 36.8203 17.8766ZM30.8453 17.3266C30.8044 17.7564 30.6608 18.1701 30.4266 18.5328C30.1439 18.9394 29.7485 19.2544 29.2891 19.4391C28.8745 19.6269 28.4303 19.7411 27.9766 19.7766C27.6349 19.8115 27.2896 19.784 26.9578 19.6953C26.6677 19.6183 26.4068 19.4574 26.2078 19.2328C26.0251 19.0528 25.901 18.8219 25.8516 18.5703C25.8058 18.3698 25.8193 18.1603 25.8903 17.9672C25.9613 17.7742 26.0868 17.6059 26.2516 17.4828C26.4423 17.3098 26.6653 17.176 26.9078 17.0891C27.5016 16.8703 28.0953 16.6766 28.7078 16.5078C29.4453 16.2953 30.1578 16.0203 30.8453 15.6891C30.9246 16.232 30.9246 16.7836 30.8453 17.3266ZM51.2328 6.62656C49.6735 6.14111 47.9884 6.26163 46.5141 6.96406C45.6215 7.39018 44.7944 7.94158 44.0578 8.60156L43.9141 6.91407H38.1703V22.9078H44.3078V14.0328C44.3001 13.5463 44.4301 13.0674 44.6828 12.6516C44.9761 12.1457 45.4445 11.7647 45.9995 11.5805C46.5545 11.3962 47.1577 11.4215 47.6953 11.6516C48.2016 11.8516 48.5828 12.2766 48.7391 12.7953C48.8203 13.0641 48.8641 13.3391 48.8641 13.6141V22.8891H55.1766V12.5641C55.1891 11.7281 55.0624 10.8959 54.8016 10.1016C54.5515 9.26418 54.0919 8.50442 53.4664 7.89416C52.8408 7.2839 52.0699 6.84331 51.2266 6.61406L51.2328 6.62656ZM88.4209 14.4391C87.6656 13.7666 86.7684 13.2731 85.7959 12.9953L85.1334 12.8078C83.943 12.475 82.7321 12.2203 81.5084 12.0453C81.1809 11.9968 80.8556 11.9342 80.5334 11.8578C80.3862 11.8251 80.2435 11.7747 80.1084 11.7078C79.9354 11.6286 79.8002 11.485 79.7313 11.3076C79.6625 11.1302 79.6655 10.933 79.7397 10.7578V10.7078C79.9162 10.3903 80.2101 10.1547 80.5584 10.0516C81.1988 9.83393 81.8931 9.83393 82.5334 10.0516C83.2022 10.2391 83.6459 10.8828 83.5959 11.5766H89.2334C89.2336 10.9156 89.1172 10.2597 88.8897 9.63906C88.6693 9.00739 88.2697 8.45358 87.7397 8.04531C87.2865 7.6764 86.7754 7.38497 86.2272 7.18282C85.7005 6.96896 85.1511 6.81589 84.5897 6.72657C83.2667 6.48545 81.9191 6.40778 80.5772 6.49531C79.806 6.53806 79.0403 6.65102 78.2897 6.83281C77.2757 7.05366 76.3262 7.50489 75.5147 8.15157C74.9968 8.53488 74.571 9.0289 74.2683 9.59762C73.9656 10.1663 73.7935 10.7954 73.7647 11.4391C73.7234 12.1135 73.8344 12.7885 74.0897 13.4141C74.3013 13.9744 74.6298 14.4832 75.0533 14.9067C75.4768 15.3302 75.9856 15.6587 76.5459 15.8703C77.1084 16.0953 77.6897 16.2703 78.2834 16.3828L81.7459 17.0328C82.1834 17.0953 82.6084 17.2078 83.0272 17.3516C83.4022 17.4641 83.6709 17.7891 83.7334 18.1703C83.7766 18.3662 83.7694 18.5698 83.7125 18.7622C83.6557 18.9545 83.5511 19.1293 83.4084 19.2703C83.121 19.5587 82.7485 19.7471 82.3459 19.8078C81.796 19.9054 81.2299 19.8514 80.7084 19.6516C80.4701 19.5617 80.2483 19.4329 80.0522 19.2703C79.787 19.061 79.5928 18.7752 79.4959 18.4516C79.4053 18.1733 79.363 17.8816 79.3709 17.5891H73.5459V17.9328C73.5628 18.5894 73.7134 19.2356 73.9885 19.832C74.2636 20.4285 74.6575 20.9625 75.1459 21.4016C75.8941 22.1163 76.8095 22.632 77.8084 22.9016C79.8647 23.5141 82.0334 23.6516 84.1459 23.3078C85.1459 23.1641 86.1022 22.8516 86.9897 22.3828C87.3831 22.1795 87.7521 21.932 88.0897 21.6453C88.8578 21.02 89.4166 20.1749 89.6914 19.2233C89.9662 18.2717 89.9438 17.2589 89.6272 16.3203C89.4157 15.5879 88.9967 14.9387 88.4209 14.4391ZM127.16 0.526564H133.141V4.75157H127.16V0.526564ZM127.16 6.92657H133.141V22.9141H127.16V6.92657ZM145.11 16.3328C145.094 16.6558 145.056 16.9773 144.997 17.2953C144.92 17.7587 144.712 18.1904 144.397 18.5391C144.098 18.8759 143.688 19.0934 143.241 19.1516C142.886 19.2111 142.522 19.1856 142.178 19.0769C141.835 18.9682 141.522 18.7796 141.266 18.5266C140.799 18.0882 140.469 17.5237 140.316 16.9016C139.889 15.464 139.915 13.9299 140.391 12.5078C140.571 11.9042 140.967 11.388 141.503 11.0578C141.889 10.8166 142.338 10.6976 142.792 10.7166C143.246 10.7355 143.684 10.8915 144.047 11.1641C144.622 11.5891 145.003 12.2266 145.11 12.9391H150.572C150.631 12.0349 150.436 11.1324 150.01 10.3328C149.547 9.45903 148.905 8.69313 148.125 8.08555C147.345 7.47798 146.445 7.04251 145.485 6.80781C143.839 6.36547 142.112 6.32262 140.447 6.68282C137.447 7.27032 135.053 9.53281 134.297 12.4953C133.939 13.7576 133.873 15.0849 134.103 16.3766C134.247 17.3078 134.572 18.1953 135.053 19.0016C135.647 20.0703 136.472 21.0016 137.46 21.7203C138.641 22.6453 140.06 23.2141 141.553 23.3578C142.678 23.4828 143.803 23.4328 144.916 23.2016C146.562 22.8933 148.064 22.06 149.197 20.8266C149.775 20.2376 150.221 19.532 150.504 18.7571C150.788 17.9822 150.902 17.1557 150.841 16.3328H145.11ZM121.96 6.62656C120.4 6.14111 118.715 6.26163 117.241 6.96406C116.348 7.38973 115.521 7.94117 114.785 8.60156L114.591 6.91407H108.853V22.9078H115.003V13.9828C114.999 13.4968 115.129 13.019 115.378 12.6016C115.681 12.1026 116.152 11.7278 116.706 11.5446C117.261 11.3613 117.862 11.3815 118.403 11.6016C118.903 11.8078 119.278 12.2266 119.428 12.7453C119.517 13.0283 119.561 13.3236 119.559 13.6203V22.8891H125.909V12.5641C125.922 11.7281 125.795 10.8958 125.534 10.1016C125.284 9.26418 124.824 8.50442 124.199 7.89416C123.573 7.2839 122.802 6.84331 121.959 6.61406L121.96 6.62656ZM72.7147 17.8766C72.7147 16.1391 72.6522 14.6828 72.6397 12.9641C72.6397 12.0766 72.5272 11.1953 72.3022 10.3391C72.1606 9.77125 71.9025 9.2391 71.5442 8.77643C71.1859 8.31375 70.7353 7.93069 70.2209 7.65157C69.6083 7.30212 68.9436 7.05313 68.2522 6.91407C66.061 6.41833 63.7916 6.37579 61.5834 6.78906C60.9584 6.88281 60.3584 7.05782 59.7772 7.30157C59.0945 7.5694 58.4825 7.99046 57.9884 8.53228C57.4942 9.0741 57.1312 9.7222 56.9272 10.4266C56.7588 10.9528 56.7055 11.5092 56.7709 12.0578C56.785 12.1624 56.8167 12.2639 56.8647 12.3578L62.2397 12.4828C62.2242 12.1572 62.2752 11.8318 62.3897 11.5266C62.4714 11.2915 62.6056 11.0781 62.7821 10.9027C62.9586 10.7272 63.1728 10.5943 63.4084 10.5141C64.0978 10.2573 64.8565 10.2573 65.5459 10.5141C65.7779 10.5824 65.9888 10.7082 66.1592 10.8797C66.3296 11.0512 66.454 11.263 66.5209 11.4953C66.5623 11.6318 66.572 11.7759 66.5492 11.9167C66.5265 12.0575 66.4719 12.1913 66.3897 12.3078C66.239 12.528 66.0256 12.6979 65.7772 12.7953L65.3084 12.9453C64.6022 13.1328 63.8834 13.2891 63.1647 13.4141C62.5916 13.5056 62.0206 13.6098 61.4522 13.7266C60.6787 13.8793 59.9148 14.0775 59.1647 14.3203C58.4739 14.5355 57.8412 14.9053 57.3147 15.4016C56.5865 16.0282 56.1184 16.9042 56.0022 17.8578C55.9019 18.4795 55.9274 19.1149 56.0772 19.7266C56.4272 21.3516 57.6522 22.6578 59.2522 23.1016C60.9834 23.6266 62.8459 23.5266 64.5147 22.8328C65.334 22.5134 66.0557 21.9856 66.6084 21.3016C66.7147 21.6641 66.8334 22.0266 66.9647 22.3828C67.0272 22.5828 67.1459 22.7703 67.2897 22.9266H73.2147C72.9919 22.5319 72.8755 22.086 72.8772 21.6328C72.7951 20.3821 72.7409 19.1297 72.7147 17.8766ZM66.6522 17.3516C66.6008 17.7741 66.451 18.1787 66.2147 18.5328C65.967 18.934 65.6029 19.2501 65.1709 19.4391C64.765 19.6203 64.3322 19.7343 63.8897 19.7766C63.5224 19.8149 63.1513 19.7831 62.7959 19.6828C62.5027 19.6084 62.2376 19.4498 62.0334 19.2266C61.8593 19.0445 61.7402 18.8171 61.6897 18.5703C61.6456 18.3776 61.6555 18.1764 61.7184 17.989C61.7813 17.8015 61.8946 17.635 62.0459 17.5078C62.2394 17.3384 62.4616 17.205 62.7022 17.1141C63.296 16.9016 63.8963 16.7077 64.5022 16.5328C65.2397 16.3141 65.9584 16.0391 66.6522 15.7141C66.7147 16.2578 66.7147 16.8078 66.6522 17.3516ZM100.921 6.60156C99.7262 6.41377 98.5094 6.41377 97.3147 6.60156C95.5501 6.8539 93.9133 7.6668 92.6459 8.92032C91.2467 10.2208 90.3915 12.0027 90.2522 13.9078C90.1272 15.0641 90.2334 16.2328 90.5522 17.3516C91.0084 19.0891 92.0459 20.6141 93.4897 21.6828C94.4084 22.4141 95.4897 22.9141 96.6397 23.1516C98.2647 23.4953 99.9334 23.4953 101.558 23.1516C102.708 22.9141 103.802 22.4141 104.727 21.6828C106.165 20.6203 107.203 19.0891 107.653 17.3516C107.981 16.2372 108.087 15.0693 107.965 13.9141C107.829 12.0064 106.973 10.2216 105.572 8.92032C104.31 7.67384 102.683 6.86353 100.928 6.60782L100.921 6.60156ZM101.296 17.9391C101.03 18.5237 100.543 18.979 99.9422 19.2052C99.3411 19.4313 98.6749 19.4098 98.0897 19.1453C97.5466 18.9124 97.1129 18.481 96.8772 17.9391C96.6548 17.4506 96.5033 16.9329 96.4272 16.4016C96.2557 15.333 96.2811 14.2422 96.5022 13.1828C96.6029 12.6309 96.8156 12.1056 97.1272 11.6391C97.3407 11.3194 97.6298 11.0573 97.9689 10.876C98.3079 10.6948 98.6865 10.5999 99.0709 10.5999C99.4554 10.5999 99.8339 10.6948 100.173 10.876C100.512 11.0573 100.801 11.3194 101.015 11.6391C101.342 12.1002 101.566 12.6269 101.671 13.1828C101.883 14.2453 101.908 15.3328 101.733 16.4016C101.663 16.9325 101.515 17.4505 101.296 17.9391Z" fill="black"/>
</g>
</svg>
