<svg width="74" height="74" viewBox="0 0 74 74" fill="none" xmlns="http://www.w3.org/2000/svg">
<g opacity="0.45" clip-path="url(#clip0_25_1522)">
<path d="M46.8204 0C31.5055 0 19.2708 12.284 19.2708 27.4509V33.3H34.6567V27.4509C34.6567 20.868 40.0093 15.54 46.8235 15.54C53.5667 15.54 58.2565 20.276 58.2565 27.3029C58.2565 34.262 53.1998 39.3649 46.4566 39.3649H40.6661V54.9018H46.4566C61.4848 54.9018 73.6485 42.5469 73.6485 27.2998C73.6454 11.47 62.2833 0 46.8204 0ZM0.354584 38.85V51.5009C0.354584 53.4249 1.96717 55.3489 4.16558 55.3489H18.8207V70.152C18.8207 72.076 20.4333 74 22.6317 74H35.1654V38.85H0.354584Z" fill="black"/>
</g>
<defs>
<clipPath id="clip0_25_1522">
<rect width="74" height="74" fill="white"/>
</clipPath>
</defs>
</svg>
