<svg width="61" height="60" viewBox="0 0 61 60" fill="none" xmlns="http://www.w3.org/2000/svg">
<rect width="60.1655" height="60" rx="12" fill="white"/>
<path d="M30.0827 8C42.1418 8.00003 52.1654 17.3779 52.1655 29.245V51.973H52.0551V52H37.6745V51.973H36.6844V37.5795H42.8999V45.7788H45.9499V29.245C45.9499 21.0814 38.9827 14.2212 30.0827 14.2211C21.1827 14.2211 14.2156 21.0814 14.2156 29.245V45.7788H17.3041V37.5795H23.5196V51.973H23.2497V52H8.86913V51.973H8V29.245C8.00001 17.3778 18.0237 8 30.0827 8Z" fill="#002B54"/>
<path d="M30.1019 18.1238C35.6669 18.1238 40.4023 21.6791 42.1647 26.644H35.0984C33.8912 25.2366 32.1005 24.345 30.1019 24.345C28.1033 24.345 26.3128 25.2366 25.1056 26.644H18.0391C19.8014 21.6791 24.5369 18.1239 30.1019 18.1238Z" fill="#002B54"/>
<path d="M42.9192 28.9433L42.9192 35.1644L33.2098 35.1644L33.2098 51.9924L26.9942 51.9924L26.9942 35.1644L17.2075 35.1644L17.2076 28.9433L42.9192 28.9433Z" fill="#3A6EA5"/>
</svg>
